<svg fill="currentColor" width="24" height="34" viewBox="0 0 24 34" xmlns="http://www.w3.org/2000/svg">
<title>accessibility-button</title>
<path fill-rule="evenodd" clip-rule="evenodd" d="M23.9582 8.77481C24.0094 9.01011 24.0136 9.25318 23.9707 9.49011C23.9278 9.72704 23.8386 9.95319 23.7082 10.1556C23.5778 10.358 23.4087 10.5327 23.2107 10.6698C23.0127 10.8068 22.7896 10.9034 22.5543 10.9541L16.8587 12.1842C16.3904 12.2848 15.9706 12.5428 15.6694 12.9153C15.3681 13.2879 15.2037 13.7524 15.2033 14.2314V16.0755C15.204 18.079 15.5638 20.0662 16.2657 21.9428L19.6688 31.056C19.7529 31.2814 19.7917 31.5211 19.7831 31.7615C19.7745 32.0019 19.7187 32.2383 19.6188 32.4571C19.5189 32.6759 19.3768 32.8729 19.2008 33.0368C19.0247 33.2007 18.8181 33.3283 18.5928 33.4124C18.3674 33.4965 18.1277 33.5353 17.8873 33.5267C17.6469 33.5182 17.4105 33.4623 17.1917 33.3624C16.9729 33.2625 16.7759 33.1204 16.612 32.9444C16.4481 32.7683 16.3205 32.5617 16.2364 32.3364L12.98 23.6192C12.9054 23.419 12.7714 23.2464 12.5959 23.1246C12.4204 23.0027 12.2119 22.9374 11.9983 22.9374C11.7847 22.9374 11.5761 23.0027 11.4007 23.1246C11.2252 23.2464 11.0912 23.419 11.0166 23.6192L7.76018 32.3364C7.5904 32.7915 7.24676 33.1606 6.80485 33.3624C6.36295 33.5642 5.85898 33.5822 5.40382 33.4124C4.94866 33.2426 4.57958 32.899 4.37779 32.4571C4.17599 32.0152 4.15801 31.5112 4.32779 31.056L7.73294 21.9407C8.43414 20.064 8.79326 18.0768 8.79325 16.0734V14.2314C8.79302 13.7527 8.62884 13.2884 8.32803 12.9159C8.02722 12.5434 7.60792 12.2852 7.13992 12.1842L1.44441 10.952C0.969521 10.8492 0.554921 10.5619 0.291822 10.1534C0.0287231 9.74494 -0.0613236 9.24866 0.0414911 8.77377C0.144306 8.29887 0.43156 7.88427 0.840061 7.62117C1.24856 7.35807 1.74485 7.26803 2.21974 7.37084L10.2287 9.10171C11.3956 9.35392 12.603 9.35392 13.77 9.10171L21.7789 7.37084C22.0142 7.31971 22.2573 7.31548 22.4942 7.35838C22.7312 7.40129 22.9573 7.4905 23.1597 7.62091C23.3621 7.75131 23.5369 7.92035 23.6739 8.11835C23.8109 8.31635 23.9075 8.53943 23.9582 8.77481ZM11.9092 0.00104781C12.3978 -0.0106361 12.8837 0.0754947 13.3384 0.254374C13.7932 0.433253 14.2076 0.701268 14.5572 1.04265C14.9069 1.38404 15.1847 1.7919 15.3744 2.24224C15.5641 2.69259 15.6618 3.17632 15.6618 3.66499C15.6618 4.15366 15.5641 4.63739 15.3744 5.08774C15.1847 5.53808 14.9069 5.94594 14.5572 6.28733C14.2076 6.62871 13.7932 6.89673 13.3384 7.07561C12.8837 7.25449 12.3978 7.34062 11.9092 7.32893C10.9527 7.30606 10.043 6.90999 9.37452 6.22536C8.70607 5.54073 8.33187 4.62183 8.33187 3.66499C8.33187 2.70815 8.70607 1.78925 9.37452 1.10462C10.043 0.41999 10.9527 0.0239256 11.9092 0.00104781Z"></path>
</svg>
