<svg width="24" height="24" viewBox="0 0 24 24" fill="none" xmlns="http://www.w3.org/2000/svg">
  <path d="M12 2C13.1046 2 14 2.89543 14 4C14 4.74028 13.5978 5.38663 13 5.73244V7H14C14.5523 7 15 7.44772 15 8C15 8.55228 14.5523 9 14 9H13V19.9381C15.8135 19.4869 18 16.9827 18 14C18 13.4477 18.4477 13 19 13C19.5523 13 20 13.4477 20 14C20 18.0796 16.9463 21.446 13 21.9381V22C13 22.5523 12.5523 23 12 23C11.4477 23 11 22.5523 11 22V21.9381C7.05369 21.446 4 18.0796 4 14C4 13.4477 4.44772 13 5 13C5.55228 13 6 13.4477 6 14C6 16.9827 8.18652 19.4869 11 19.9381V9H10C9.44772 9 9 8.55228 9 8C9 7.44772 9.44772 7 10 7H11V5.73244C10.4022 5.38663 10 4.74028 10 4C10 2.89543 10.8954 2 12 2Z" fill="currentColor"/>
</svg>