<svg width="24" height="24" viewBox="8 2 24 24" fill="none" xmlns="http://www.w3.org/2000/svg">
<g filter="url(#filter0_dd_10092_255001)">
<path d="M8.41381 21.8618H31.5862C31.8147 21.8618 32 21.6765 32 21.448V6.55151C32 6.32299 31.8147 6.1377 31.5862 6.1377H8.41381C8.1853 6.13774 8 6.32299 8 6.55151V21.448C8 21.6766 8.1853 21.8618 8.41381 21.8618Z" fill="#C8414B"/>
</g>
<path d="M32 9.44824H8V18.5518H32V9.44824Z" fill="#FFD250"/>
<path d="M18.1377 13.9998L18.4886 12.421C18.5209 12.2756 18.4103 12.1377 18.2613 12.1377H18.0142C17.8652 12.1377 17.7546 12.2756 17.7869 12.421L18.1377 13.9998Z" fill="#C8414B"/>
<path d="M18.5522 13.1719H17.7246V16.6889H18.5522V13.1719Z" fill="#F5F5F5"/>
<path d="M18.759 12.7588H17.5176V13.1726H18.759V12.7588Z" fill="#FAB446"/>
<path d="M18.7605 14H16.6914V14.4138H18.7605V14Z" fill="#C8414B"/>
<path d="M18.7609 15.6547L17.5195 15.241V14.8271L18.7609 15.241V15.6547Z" fill="#C8414B"/>
<path d="M11.9327 13.9998L12.2835 12.421C12.3159 12.2756 12.2052 12.1377 12.0562 12.1377H11.8091C11.6602 12.1377 11.5495 12.2756 11.5818 12.421L11.9327 13.9998Z" fill="#C8414B"/>
<path d="M13.3806 12.7588C13.1521 12.7588 12.9668 12.9441 12.9668 13.1726V15.8622C12.9668 16.365 13.436 17.3105 15.0358 17.3105C16.6355 17.3105 17.1047 16.365 17.1047 15.8622V13.1726C17.1047 12.9441 16.9194 12.7588 16.6909 12.7588H13.3806Z" fill="#F5F5F5"/>
<path d="M15.0358 14.8278H12.9668V13.1726C12.9668 12.9441 13.1521 12.7588 13.3806 12.7588H15.0358V14.8278Z" fill="#C8414B"/>
<path d="M15.0352 14.8281H17.1041V15.8626C17.1041 16.434 16.641 16.8971 16.0696 16.8971C15.4983 16.8971 15.0352 16.434 15.0352 15.8626V14.8281Z" fill="#C8414B"/>
<path d="M12.9668 14.8281H15.0358V15.8626C15.0358 16.434 14.5726 16.8971 14.0013 16.8971C13.4299 16.8971 12.9668 16.434 12.9668 15.8626V14.8281Z" fill="#FAB446"/>
<path d="M14.6208 16.6855V14.8281H14.207V16.8762C14.361 16.845 14.5 16.7769 14.6208 16.6855Z" fill="#C8414B"/>
<path d="M13.7927 16.8762V14.8281H13.3789V16.6855C13.4997 16.7769 13.6388 16.845 13.7927 16.8762Z" fill="#C8414B"/>
<path d="M14.6222 14H13.3809V14.4138H14.6222V14Z" fill="#FFB441"/>
<path d="M14.6222 13.1719H13.3809V13.5857H14.6222V13.1719Z" fill="#FAB446"/>
<path d="M14.4155 13.418H13.5879V14.1676H14.4155V13.418Z" fill="#FAB446"/>
<path d="M12.3452 13.1719H11.5176V16.6889H12.3452V13.1719Z" fill="#F5F5F5"/>
<path d="M12.5519 16.4834H11.3105V16.8972H12.5519V16.4834Z" fill="#FAB446"/>
<path d="M12.5519 12.7588H11.3105V13.1726H12.5519V12.7588Z" fill="#FAB446"/>
<path d="M12.7587 16.8965H11.1035V17.3103H12.7587V16.8965Z" fill="#5064AA"/>
<path d="M18.966 16.4834H17.7246V16.8972H18.966V16.4834Z" fill="#FAB446"/>
<path d="M18.9657 16.8965H17.3105V17.3103H18.9657V16.8965Z" fill="#5064AA"/>
<path d="M16.2777 12.3447H13.7949V12.7585H16.2777V12.3447Z" fill="#FAB446"/>
<path d="M15.2419 11.1035H14.8281V12.3449H15.2419V11.1035Z" fill="#FFB441"/>
<path d="M14.6226 11.7238C14.2803 11.7238 14.002 11.4453 14.002 11.1031C14.002 10.7608 14.2804 10.4824 14.6226 10.4824C14.9649 10.4824 15.2433 10.7609 15.2433 11.1031C15.2433 11.4453 14.9649 11.7238 14.6226 11.7238ZM14.6226 10.8962C14.5085 10.8962 14.4157 10.9889 14.4157 11.1031C14.4157 11.2172 14.5084 11.31 14.6226 11.31C14.7368 11.31 14.8295 11.2173 14.8295 11.1031C14.8295 10.989 14.7368 10.8962 14.6226 10.8962Z" fill="#F5F5F5"/>
<path d="M15.4488 11.7238C15.1065 11.7238 14.8281 11.4453 14.8281 11.1031C14.8281 10.7608 15.1066 10.4824 15.4488 10.4824C15.7911 10.4824 16.0695 10.7609 16.0695 11.1031C16.0695 11.4453 15.791 11.7238 15.4488 11.7238ZM15.4488 10.8962C15.3347 10.8962 15.2419 10.9889 15.2419 11.1031C15.2419 11.2172 15.3346 11.31 15.4488 11.31C15.5629 11.31 15.6557 11.2173 15.6557 11.1031C15.6557 10.989 15.5629 10.8962 15.4488 10.8962Z" fill="#F5F5F5"/>
<path d="M16.2769 12.1378C15.9346 12.1378 15.6562 11.8594 15.6562 11.5172C15.6562 11.1749 15.9347 10.8965 16.2769 10.8965C16.6192 10.8965 16.8976 11.1749 16.8976 11.5172C16.8976 11.8594 16.6192 12.1378 16.2769 12.1378ZM16.2769 11.3102C16.1628 11.3102 16.07 11.403 16.07 11.5172C16.07 11.6313 16.1627 11.7241 16.2769 11.7241C16.3911 11.7241 16.4838 11.6313 16.4838 11.5172C16.4838 11.403 16.3911 11.3102 16.2769 11.3102Z" fill="#F5F5F5"/>
<path d="M13.7945 12.1378C13.4522 12.1378 13.1738 11.8594 13.1738 11.5172C13.1738 11.1749 13.4523 10.8965 13.7945 10.8965C14.1368 10.8965 14.4152 11.1749 14.4152 11.5172C14.4152 11.8594 14.1368 12.1378 13.7945 12.1378ZM13.7945 11.3102C13.6804 11.3102 13.5876 11.403 13.5876 11.5172C13.5876 11.6313 13.6803 11.7241 13.7945 11.7241C13.9087 11.7241 14.0014 11.6313 14.0014 11.5171C14.0014 11.403 13.9087 11.3102 13.7945 11.3102Z" fill="#F5F5F5"/>
<path d="M16.2768 15.655V15.8619C16.2768 15.976 16.184 16.0688 16.0699 16.0688C15.9558 16.0688 15.863 15.976 15.863 15.8619V15.655H16.2768ZM16.6906 15.2412H15.4492V15.8619C15.4492 16.2042 15.7277 16.4826 16.0699 16.4826C16.4122 16.4826 16.6906 16.2041 16.6906 15.8619V15.2412H16.6906Z" fill="#FAB446"/>
<path d="M16.0701 14.4143C15.8415 14.4143 15.6562 14.229 15.6562 14.0005V13.5867C15.6562 13.3581 15.8415 13.1729 16.0701 13.1729C16.2986 13.1729 16.4839 13.3581 16.4839 13.5867V14.0005C16.4839 14.229 16.2986 14.4143 16.0701 14.4143Z" fill="#FFA0D2"/>
<path d="M15.0347 15.4484C15.3775 15.4484 15.6554 15.1705 15.6554 14.8277C15.6554 14.4849 15.3775 14.207 15.0347 14.207C14.6919 14.207 14.4141 14.4849 14.4141 14.8277C14.4141 15.1705 14.6919 15.4484 15.0347 15.4484Z" fill="#5064AA"/>
<path d="M15.2419 10.2754H14.8281V11.5168H15.2419V10.2754Z" fill="#FAB446"/>
<path d="M13.7947 12.3449L13.3809 11.9311L13.6232 11.6887C13.9979 11.314 14.5061 11.1035 15.0361 11.1035C15.566 11.1035 16.0742 11.314 16.4489 11.6887L16.6913 11.9311L16.2774 12.3449H13.7947Z" fill="#C8414B"/>
<path d="M15.035 12.1374C15.1493 12.1374 15.2419 12.0448 15.2419 11.9305C15.2419 11.8163 15.1493 11.7236 15.035 11.7236C14.9208 11.7236 14.8281 11.8163 14.8281 11.9305C14.8281 12.0448 14.9208 12.1374 15.035 12.1374Z" fill="#FFD250"/>
<path d="M14.2069 12.1374C14.3212 12.1374 14.4138 12.0448 14.4138 11.9305C14.4138 11.8163 14.3212 11.7236 14.2069 11.7236C14.0926 11.7236 14 11.8163 14 11.9305C14 12.0448 14.0926 12.1374 14.2069 12.1374Z" fill="#FFD250"/>
<path d="M15.8612 12.1374C15.9755 12.1374 16.0681 12.0448 16.0681 11.9305C16.0681 11.8163 15.9755 11.7236 15.8612 11.7236C15.7469 11.7236 15.6543 11.8163 15.6543 11.9305C15.6543 12.0448 15.7469 12.1374 15.8612 12.1374Z" fill="#FFD250"/>
<path d="M13.3796 14H11.3105V14.4138H13.3796V14Z" fill="#C8414B"/>
<path d="M11.3105 15.6547L12.5519 15.241V14.8271L11.3105 15.241V15.6547Z" fill="#C8414B"/>
<defs>
<filter id="filter0_dd_10092_255001" x="-6" y="0.137695" width="52" height="43.7246" filterUnits="userSpaceOnUse" color-interpolation-filters="sRGB">
<feFlood flood-opacity="0" result="BackgroundImageFix"/>
<feColorMatrix in="SourceAlpha" type="matrix" values="0 0 0 0 0 0 0 0 0 0 0 0 0 0 0 0 0 0 127 0" result="hardAlpha"/>
<feOffset dy="2"/>
<feGaussianBlur stdDeviation="2"/>
<feColorMatrix type="matrix" values="0 0 0 0 0.258824 0 0 0 0 0.309804 0 0 0 0 0.423529 0 0 0 0.14 0"/>
<feBlend mode="normal" in2="BackgroundImageFix" result="effect1_dropShadow_10092_255001"/>
<feColorMatrix in="SourceAlpha" type="matrix" values="0 0 0 0 0 0 0 0 0 0 0 0 0 0 0 0 0 0 127 0" result="hardAlpha"/>
<feMorphology radius="2" operator="erode" in="SourceAlpha" result="effect2_dropShadow_10092_255001"/>
<feOffset dy="8"/>
<feGaussianBlur stdDeviation="8"/>
<feColorMatrix type="matrix" values="0 0 0 0 0.258824 0 0 0 0 0.309804 0 0 0 0 0.423529 0 0 0 0.12 0"/>
<feBlend mode="normal" in2="effect1_dropShadow_10092_255001" result="effect2_dropShadow_10092_255001"/>
<feBlend mode="normal" in="SourceGraphic" in2="effect2_dropShadow_10092_255001" result="shape"/>
</filter>
</defs>
</svg>
