<svg width="24" height="24" viewBox="8 2 24 24" fill="none" xmlns="http://www.w3.org/2000/svg">
<g filter="url(#filter0_dd_10092_254893)">
<rect x="8" y="6.125" width="24" height="15.75" rx="0.5" fill="#379869"/>
</g>
<path fill-rule="evenodd" clip-rule="evenodd" d="M18.1136 13.9258C17.819 14.3686 18.0317 14.6566 18.3354 14.6771C18.5356 14.6919 18.9518 14.3937 18.9507 14.043L18.837 13.9793C18.9007 14.1592 18.8347 14.2161 18.6993 14.339C18.4321 14.5815 17.8861 14.5986 18.1136 13.9258Z" fill="white" stroke="white" stroke-width="0.00477375"/>
<path fill-rule="evenodd" clip-rule="evenodd" d="M20.4494 15.0871C22.1078 15.1338 22.6355 13.5275 21.6119 12.1523L21.5106 12.3038C21.5766 12.9447 21.6721 13.5765 21.6812 14.2333C21.4811 14.469 21.1899 14.3813 21.1319 14.1195C21.1353 13.7643 21.0193 13.4638 20.8726 13.1769L20.7907 13.3283C20.8862 13.564 20.9897 13.8292 21.0113 14.1195C20.5382 14.6876 20.015 14.8025 20.2095 14.0558C19.8353 14.7103 20.4017 15.1714 21.0432 14.1639C21.1808 14.8515 21.7131 14.4246 21.7449 14.2766C21.8029 13.8258 21.7734 13.0995 21.6562 12.5257C22.118 13.326 22.1339 13.9032 21.8883 14.2891C21.6153 14.7183 21.0216 14.9187 20.4494 15.0871Z" fill="white" stroke="white" stroke-width="0.0119344"/>
<path fill-rule="evenodd" clip-rule="evenodd" d="M21.3904 13.271C21.0355 13.2972 20.8535 13.2243 21.0458 12.9614C21.2357 12.7041 21.4131 12.909 21.4609 13.2528C21.5053 13.575 20.8376 13.9859 20.6067 13.9859C20.2576 13.9859 20.096 13.5363 20.4179 13.1321C20.0039 14.3115 21.3119 13.6273 21.3904 13.271ZM21.1447 12.9978C21.1015 12.9955 21.0696 13.0718 21.0913 13.0866C21.1538 13.1298 21.2528 13.1037 21.263 13.082C21.2846 13.0342 21.205 13.0001 21.1447 12.9978Z" fill="white" stroke="white" stroke-width="0.0119344"/>
<path fill-rule="evenodd" clip-rule="evenodd" d="M19.4635 13.8281C19.1222 14.4998 19.4623 14.7775 19.9002 14.7001C20.155 14.6534 20.478 14.4724 20.6645 14.2254C20.668 13.6813 20.66 13.1416 20.6122 12.6146C20.7828 12.4108 20.5974 12.4119 20.5326 12.1934C20.503 12.3209 20.4314 12.4586 20.5008 12.5576C20.5497 13.0893 20.577 13.6277 20.5758 14.1765C20.2323 14.4531 19.9741 14.5555 19.7899 14.5533C19.4089 14.5499 19.327 14.2288 19.4635 13.8281Z" fill="white" stroke="white" stroke-width="0.0119344"/>
<path fill-rule="evenodd" clip-rule="evenodd" d="M20.1606 14.0044C20.1549 13.4978 20.1469 12.9229 20.1014 12.5688C20.2789 12.3719 20.0923 12.3673 20.0343 12.1465C20.0002 12.2717 19.9251 12.4083 19.9911 12.5096C20.0207 13.0515 20.0491 13.5934 20.0548 14.1353C20.0957 14.1091 20.1424 14.0988 20.1606 14.0044Z" fill="white" stroke="white" stroke-width="0.0119344"/>
<path fill-rule="evenodd" clip-rule="evenodd" d="M18.8359 13.9819C18.7927 13.9273 18.762 13.8658 18.7267 13.8123C18.721 13.7361 18.7722 13.6655 18.779 13.6268C18.837 13.7167 18.8711 13.785 18.9178 13.8294M18.9792 13.8647C19.0645 13.8988 19.1691 13.8988 19.2658 13.9011C19.6389 13.908 20.0313 13.8465 19.9892 14.3519C19.9769 14.5412 19.8937 14.719 19.7563 14.8496C19.6188 14.9802 19.4372 15.0541 19.2476 15.0566C18.7733 15.052 18.3684 14.5284 19.0998 13.5642C19.1703 13.5528 19.2624 13.5721 19.3386 13.579C19.4694 13.5892 19.6036 13.5767 19.7572 13.4537C19.739 13.1361 19.739 12.8356 19.7003 12.5487C19.6343 12.4474 19.7094 12.3119 19.7435 12.1855C19.8015 12.4064 19.9869 12.411 19.8106 12.609C19.8527 12.9278 19.8573 13.2522 19.8573 13.4458C19.7685 13.5812 19.6992 13.7247 19.4398 13.7793C19.1748 13.7406 19.0554 13.3695 18.779 13.4924C18.8552 13.1577 19.557 13.0815 19.6275 13.3456C19.5809 13.6211 18.9257 13.5106 18.7517 14.4009C18.6983 14.6752 18.9872 14.928 19.284 14.9075C19.5741 14.8881 19.8834 14.6866 19.9141 14.3474C19.938 14.0639 19.5388 14.0969 19.3716 14.1003C19.1282 14.106 18.9746 14.0685 18.8825 14.015M19.1316 13.4014C19.1748 13.3604 19.3261 13.3319 19.3807 13.3979C19.3398 13.4253 19.2999 13.4549 19.267 13.4902C19.2101 13.4606 19.1726 13.431 19.1316 13.4014Z" fill="white"/>
<path d="M18.8359 13.9819C18.7927 13.9273 18.762 13.8658 18.7267 13.8123C18.721 13.7361 18.7722 13.6655 18.779 13.6268C18.837 13.7167 18.8711 13.785 18.9178 13.8294M18.9792 13.8647C19.0645 13.8988 19.1691 13.8988 19.2658 13.9011C19.6389 13.908 20.0313 13.8465 19.9892 14.3519C19.9769 14.5412 19.8937 14.719 19.7563 14.8496C19.6188 14.9802 19.4372 15.0541 19.2476 15.0566C18.7733 15.052 18.3684 14.5284 19.0998 13.5642C19.1703 13.5528 19.2624 13.5721 19.3386 13.579C19.4694 13.5892 19.6036 13.5767 19.7572 13.4537C19.739 13.1361 19.739 12.8356 19.7003 12.5487C19.6343 12.4474 19.7094 12.3119 19.7435 12.1855C19.8015 12.4064 19.9869 12.411 19.8106 12.609C19.8527 12.9278 19.8573 13.2522 19.8573 13.4458C19.7685 13.5812 19.6992 13.7247 19.4398 13.7793C19.1748 13.7406 19.0554 13.3695 18.779 13.4924C18.8552 13.1577 19.557 13.0815 19.6275 13.3456C19.5809 13.6211 18.9257 13.5106 18.7517 14.4009C18.6983 14.6752 18.9872 14.928 19.284 14.9075C19.5741 14.8881 19.8834 14.6866 19.9141 14.3474C19.938 14.0639 19.5388 14.0969 19.3716 14.1003C19.1282 14.106 18.9746 14.0685 18.8825 14.015M19.1316 13.4014C19.1748 13.3604 19.3261 13.3319 19.3807 13.3979C19.3398 13.4253 19.2999 13.4549 19.267 13.4902C19.2101 13.4606 19.1726 13.431 19.1316 13.4014Z" stroke="white" stroke-width="0.00477375"/>
<path fill-rule="evenodd" clip-rule="evenodd" d="M19.5035 12.459C19.5411 12.5332 19.5617 12.6149 19.5638 12.698C19.5387 12.8164 19.4375 12.9269 19.3329 12.9303C19.268 12.9326 19.1953 12.9143 19.1441 12.813C19.1384 12.8005 19.1111 12.7709 19.0849 12.7846C18.9701 12.9735 18.8847 13.0532 18.7812 13.0521C18.5742 13.0487 18.6357 12.8643 18.4446 12.8073C18.365 12.8051 18.2342 12.8859 18.1671 13.0441C17.9123 13.767 17.6802 13.0418 17.7792 12.7049C17.794 13.027 17.8713 13.2183 17.9509 13.2126C18.009 13.2069 18.0601 13.0726 18.1341 12.9314C18.1909 12.8233 18.3274 12.6286 18.4719 12.6286C18.6038 12.632 18.5208 12.8745 18.7847 12.8711C18.912 12.8688 19.0292 12.7709 19.1475 12.5751C19.1736 12.5706 19.1805 12.6172 19.1862 12.6332C19.2044 12.7003 19.3204 12.8847 19.4773 12.7163C19.4694 12.6798 19.4728 12.6195 19.433 12.607L19.5035 12.459Z" fill="white" stroke="white" stroke-width="0.0119344"/>
<path fill-rule="evenodd" clip-rule="evenodd" d="M20.3324 11.8604C20.1925 11.9299 20.0901 11.8661 20.0321 11.8047C20.1334 11.7842 20.2118 11.7477 20.2346 11.6681C20.1891 11.5656 20.081 11.5212 19.9286 11.5201C19.725 11.5258 19.6204 11.6077 19.6079 11.7204C19.7023 11.7238 19.7876 11.6977 19.824 11.7887C19.6568 11.8707 19.46 11.9003 19.2462 11.8991C18.8959 11.9174 18.8447 11.7591 18.7526 11.6202C18.7457 11.6111 18.715 11.5963 18.6991 11.5986C18.5911 11.5986 18.5114 11.9766 18.3897 11.9754C18.268 11.9595 18.2953 11.7318 18.2601 11.602C18.2305 11.8058 18.2976 12.564 18.6741 11.7409C18.6855 11.7136 18.7014 11.7216 18.7116 11.7443C18.8128 11.9743 19.0187 12.054 19.2405 12.0654C19.4259 12.0756 19.6625 11.9948 19.9161 11.8513C19.9832 11.9253 20.0367 12.0096 20.1777 12.0255C20.3426 12.0335 20.5189 11.9139 20.5587 11.766C20.5792 11.6897 20.5826 11.5394 20.5019 11.5371C20.3893 11.5337 20.3074 11.8069 20.3335 12.0528C20.3358 12.0494 20.3483 11.9914 20.3483 11.9914M19.8502 11.6635C19.9241 11.6293 19.9957 11.6134 20.0526 11.6885C20.0184 11.6982 19.9861 11.7136 19.9571 11.7341C19.9252 11.709 19.882 11.6965 19.8502 11.6635ZM20.3938 11.8331C20.412 11.7523 20.4223 11.6874 20.4882 11.6453C20.5019 11.7307 20.5042 11.7785 20.3938 11.8331ZM20.8374 11.9583C20.8158 11.8889 20.7942 11.8286 20.7874 11.7534C20.7714 11.6009 20.9022 11.5144 21.0205 11.5269C21.1422 11.5394 21.223 11.585 21.339 11.6248C21.43 11.6555 21.5528 11.6794 21.67 11.7125C21.7359 11.742 21.67 11.8195 21.6529 11.8297C21.3595 11.9447 21.1513 12.1268 20.9648 12.1348C20.8533 12.1405 20.7544 12.0676 20.6645 11.9185C20.6588 11.6293 20.6486 11.2901 20.6202 11.0772C20.6634 11.034 20.6725 11.0021 20.693 10.9668C20.7157 11.248 20.7248 11.544 20.7305 11.8422C20.7544 11.8935 20.784 11.9367 20.8374 11.9583ZM21.0251 11.9811C20.8681 12.0255 20.8875 11.8923 20.8727 11.8104C20.8556 11.7147 20.867 11.6066 20.9887 11.6339C21.1468 11.676 21.2912 11.7318 21.4311 11.791L21.0251 11.9811Z" fill="white"/>
<path d="M20.3324 11.8604C20.1925 11.9299 20.0901 11.8661 20.0321 11.8047C20.1334 11.7842 20.2118 11.7477 20.2346 11.6681C20.1891 11.5656 20.081 11.5212 19.9286 11.5201C19.725 11.5258 19.6204 11.6077 19.6079 11.7204C19.7023 11.7238 19.7876 11.6977 19.824 11.7887C19.6568 11.8707 19.46 11.9003 19.2462 11.8991C18.8959 11.9174 18.8447 11.7591 18.7526 11.6202C18.7457 11.6111 18.715 11.5963 18.6991 11.5986C18.5911 11.5986 18.5114 11.9766 18.3897 11.9754C18.268 11.9595 18.2953 11.7318 18.2601 11.602C18.2305 11.8058 18.2976 12.564 18.6741 11.7409C18.6855 11.7136 18.7014 11.7216 18.7116 11.7443C18.8128 11.9743 19.0187 12.054 19.2405 12.0654C19.4259 12.0756 19.6625 11.9948 19.9161 11.8513C19.9832 11.9253 20.0367 12.0096 20.1777 12.0255C20.3426 12.0335 20.5189 11.9139 20.5587 11.766C20.5792 11.6897 20.5826 11.5394 20.5019 11.5371C20.3893 11.5337 20.3074 11.8069 20.3335 12.0528C20.3358 12.0494 20.3483 11.9914 20.3483 11.9914M19.8502 11.6635C19.9241 11.6293 19.9957 11.6134 20.0526 11.6885C20.0184 11.6982 19.9861 11.7136 19.9571 11.7341C19.9252 11.709 19.882 11.6965 19.8502 11.6635ZM20.3938 11.8331C20.412 11.7523 20.4223 11.6874 20.4882 11.6453C20.5019 11.7307 20.5042 11.7785 20.3938 11.8331ZM20.8374 11.9583C20.8158 11.8889 20.7942 11.8286 20.7874 11.7534C20.7714 11.6009 20.9022 11.5144 21.0205 11.5269C21.1422 11.5394 21.223 11.585 21.339 11.6248C21.43 11.6555 21.5528 11.6794 21.67 11.7125C21.7359 11.742 21.67 11.8195 21.6529 11.8297C21.3595 11.9447 21.1513 12.1268 20.9648 12.1348C20.8533 12.1405 20.7544 12.0676 20.6645 11.9185C20.6588 11.6293 20.6486 11.2901 20.6202 11.0772C20.6634 11.034 20.6725 11.0021 20.693 10.9668C20.7157 11.248 20.7248 11.544 20.7305 11.8422C20.7544 11.8935 20.784 11.9367 20.8374 11.9583ZM21.0251 11.9811C20.8681 12.0255 20.8875 11.8923 20.8727 11.8104C20.8556 11.7147 20.867 11.6066 20.9887 11.6339C21.1468 11.676 21.2912 11.7318 21.4311 11.791L21.0251 11.9811Z" stroke="white" stroke-width="0.00477375"/>
<path fill-rule="evenodd" clip-rule="evenodd" d="M20.873 12.123L20.8947 12.2289H20.9117L20.9049 12.1299" fill="white"/>
<path d="M20.873 12.123L20.8947 12.2289H20.9117L20.9049 12.1299" stroke="white" stroke-width="0.00477375"/>
<path fill-rule="evenodd" clip-rule="evenodd" d="M18.3684 13.2285L18.448 13.1465L18.5401 13.2251L18.4548 13.3013L18.3684 13.2285ZM18.5708 13.2012L18.6516 13.1192L18.7437 13.1978L18.6584 13.274L18.5708 13.2012ZM18.0078 12.3519L18.0886 12.27L18.1807 12.3485L18.0954 12.4248L18.0078 12.3519ZM18.0442 12.5933L18.125 12.5113L18.216 12.5898L18.1307 12.6661L18.0442 12.5933ZM19.5058 12.9974L19.5797 12.9371L19.6479 13.0111L19.5706 13.0657L19.5058 12.9974ZM18.5299 11.4526L18.5822 11.3991L18.6425 11.4503L18.5867 11.5004L18.5299 11.4526ZM18.663 11.4355L18.7153 11.3809L18.7756 11.4332L18.7198 11.4822L18.663 11.4355ZM21.4564 12.0468L21.4063 12.0889L21.3586 12.04L21.4109 12.0013L21.4564 12.0468Z" fill="white" stroke="white" stroke-width="0.0477375" stroke-linecap="round" stroke-linejoin="round"/>
<path fill-rule="evenodd" clip-rule="evenodd" d="M19.1014 13.5566L19.0957 13.6466L19.239 13.6602L19.3539 13.5737L19.1014 13.5566Z" fill="white" stroke="white" stroke-width="0.00477375"/>
<path fill-rule="evenodd" clip-rule="evenodd" d="M20.3125 11.8782L20.3546 11.8691L20.35 11.9864L20.3239 11.9966L20.3125 11.8782Z" fill="white" stroke="white" stroke-width="0.0119344"/>
<path d="M19.9994 16.5965C21.6126 16.5965 22.9266 15.2833 22.9266 13.667C22.9226 13.236 22.8288 12.8117 22.6524 12.4269C22.4759 12.0421 22.2215 11.7069 21.9088 11.4473C22.2936 11.8945 22.5087 12.4865 22.5101 13.1024C22.5101 14.5058 21.3867 15.6447 19.9994 15.6447C18.6121 15.6447 17.4888 14.5058 17.4888 13.1024C17.4906 12.486 17.7068 11.8939 18.093 11.4473C17.7797 11.7066 17.5247 12.0416 17.3478 12.4265C17.1708 12.8113 17.0765 13.2357 17.0723 13.667C17.0723 15.2833 18.3863 16.5997 19.9994 16.5997V16.5965Z" fill="white"/>
<path d="M19.6039 18.2255C18.9581 18.5488 18.1508 18.4606 17.4683 18.0199C17.4389 18.0052 17.4242 18.0272 17.4536 18.108C17.527 18.321 17.5857 18.49 17.3655 18.8059C17.2701 18.9454 17.3802 18.9675 17.5417 18.9528C18.3636 18.872 19.1709 18.6883 19.5599 18.5341L19.6039 18.2255ZM19.5892 18.6075C19.3324 18.7104 18.892 18.8352 18.4003 18.9234C18.2022 18.9528 18.2095 19.0776 18.5618 19.1217C18.9214 19.1584 19.3838 18.9013 19.6626 18.6736L19.5892 18.6075Z" fill="white" stroke="black" stroke-width="0.0616055"/>
<path d="M19.9991 17.9035C20.0872 17.9035 20.2486 17.8668 20.4101 17.8447C20.711 17.7933 20.4908 18.2561 19.9991 18.2561V18.4104C20.4982 18.4104 21.0192 17.8668 20.9092 17.6244C20.755 17.2718 20.3294 17.573 19.9991 17.573C19.6689 17.573 19.2432 17.2718 19.0891 17.6244C18.979 17.8668 19.5001 18.4104 19.9991 18.4104V18.2561C19.5074 18.2561 19.2872 17.7933 19.5881 17.8447C19.7496 17.8668 19.9111 17.9035 19.9991 17.9035Z" fill="white"/>
<path d="M19.9991 18.2561C20.4908 18.2561 20.711 17.7933 20.4101 17.8447C20.2486 17.8668 20.0872 17.9035 19.9991 17.9035C19.9111 17.9035 19.7496 17.8668 19.5881 17.8447C19.2872 17.7933 19.5074 18.2561 19.9991 18.2561ZM19.9991 18.2561V18.4104M19.9991 18.4104C20.4982 18.4104 21.0192 17.8668 20.9092 17.6244C20.755 17.2718 20.3294 17.573 19.9991 17.573C19.6689 17.573 19.2432 17.2718 19.0891 17.6244C18.979 17.8668 19.5001 18.4104 19.9991 18.4104Z" stroke="black" stroke-width="0.0616055"/>
<path d="M20.3966 18.2255C21.0424 18.5488 21.8497 18.4606 22.5322 18.0199C22.5616 18.0052 22.5763 18.0272 22.5469 18.108C22.4735 18.321 22.4148 18.49 22.635 18.8059C22.7304 18.9454 22.6203 18.9675 22.4589 18.9528C21.6369 18.872 20.8296 18.6883 20.4406 18.5341L20.3966 18.2255ZM20.4113 18.6075C20.6681 18.7104 21.1011 18.8352 21.6002 18.9234C21.7983 18.9528 21.791 19.0776 21.4387 19.1217C21.0791 19.1584 20.6168 18.9013 20.3379 18.6736L20.4113 18.6075Z" fill="white" stroke="black" stroke-width="0.0616055"/>
<path d="M20.0225 18.5348C20.0372 18.6597 20.0592 18.9315 20.228 18.814C20.4555 18.6597 20.5069 18.5422 20.5069 18.3218C20.5069 18.1822 20.3381 17.9766 20.0005 17.9766C19.6629 17.9766 19.4941 18.1822 19.4941 18.3218C19.4941 18.5422 19.5455 18.6597 19.773 18.814C19.9418 18.9315 19.9565 18.6597 19.9785 18.5348C19.9859 18.4908 20.0225 18.5055 20.0225 18.5348Z" fill="white" stroke="black" stroke-width="0.0616055"/>
<path d="M19.7867 9.12478C19.6913 8.5812 18.8914 8.54448 18.7666 8.45633C18.6198 8.36083 18.6418 8.45633 18.6932 8.60324C18.84 8.98522 19.339 9.13947 19.5665 9.18355C19.75 9.21293 19.8087 9.22762 19.7867 9.12478Z" fill="white" stroke="black" stroke-width="0.0616055"/>
<path d="M20.0302 9.13912C20.1109 8.58085 19.3183 8.31641 19.2229 8.19153C19.1128 8.05931 19.0982 8.14011 19.1495 8.29437C19.2449 8.62492 19.5899 9.01425 19.7954 9.11708C19.9642 9.20523 20.0155 9.24196 20.0302 9.13912Z" fill="white" stroke="black" stroke-width="0.0616055"/>
<path d="M20.6836 9.46313C20.757 8.79468 20.1112 8.69184 19.9424 8.47881C19.8323 8.34659 19.825 8.42005 19.8616 8.57431C19.935 8.91221 20.258 9.30887 20.4561 9.43375C20.6102 9.52924 20.6763 9.56597 20.6836 9.46313Z" fill="white" stroke="black" stroke-width="0.0616055"/>
<path d="M20.4847 9.315C19.8169 8.8816 19.3472 9.12401 19.1563 9.10197C18.9729 9.07994 18.9142 9.19747 19.2297 9.37376C19.6187 9.58679 20.1618 9.5574 20.3746 9.4766C20.5948 9.38845 20.5287 9.34438 20.4847 9.315ZM21.4901 9.60882C21.2847 8.88895 20.8076 9.00648 20.6682 8.91833C20.5287 8.83018 20.5141 8.85222 20.5434 9.01383C20.6021 9.30031 21.0938 9.61617 21.336 9.71166C21.4241 9.74105 21.5342 9.78512 21.4901 9.60882Z" fill="white" stroke="black" stroke-width="0.0616055"/>
<path d="M21.3939 9.73291C20.8215 9.27014 20.3738 9.61538 20.1977 9.56396C20.0656 9.52724 20.1243 9.61538 20.1756 9.65211C20.5426 9.90921 20.9976 10.0488 21.3499 9.88717C21.4893 9.82841 21.4967 9.81372 21.3939 9.73291ZM22.6342 10.203C22.6415 9.74761 21.7022 9.55662 21.504 9.27748C21.3866 9.10853 21.2838 9.19668 21.3425 9.46847C21.4306 9.82106 22.0764 10.2104 22.4287 10.2838C22.6415 10.3279 22.6342 10.2545 22.6342 10.203Z" fill="white" stroke="black" stroke-width="0.0616055"/>
<path d="M22.6048 10.2862C22.0104 9.74994 21.5113 9.92623 21.3279 9.87481C21.1444 9.83074 21.071 9.94092 21.3572 10.1613C21.7095 10.4257 22.2526 10.4772 22.4801 10.4257C22.7076 10.3743 22.6489 10.3229 22.6048 10.2862ZM23.669 11.0722C23.5002 10.2935 22.9645 10.1319 22.8323 9.985C22.7076 9.83808 22.5755 9.88216 22.6856 10.2347C22.8177 10.6535 23.2507 11.0207 23.4782 11.1089C23.6983 11.2044 23.6837 11.1309 23.669 11.0722Z" fill="white" stroke="black" stroke-width="0.0616055"/>
<path d="M23.6619 11.1737C23.2289 10.4759 22.6638 10.4979 22.4877 10.4024C22.3189 10.2996 22.2015 10.3877 22.429 10.6889C22.6932 11.0562 23.2363 11.2619 23.4858 11.2766C23.7353 11.2913 23.6913 11.2252 23.6619 11.1737Z" fill="white" stroke="black" stroke-width="0.0616055"/>
<path d="M24.2199 12.0032C24.4695 11.2099 23.897 10.916 23.8383 10.7838C23.7723 10.6516 23.7062 10.6516 23.6695 10.7912C23.5081 11.3568 24.0291 11.9077 24.1099 12.0179C24.1906 12.1207 24.2053 12.0693 24.2199 12.0032Z" fill="white" stroke="black" stroke-width="0.0616055"/>
<path d="M24.1032 12.2245C23.905 11.3356 23.384 11.3871 23.2665 11.2622C23.1418 11.1373 23.1271 11.2254 23.1491 11.3871C23.2078 11.8204 23.7289 12.1143 23.9637 12.2612C24.0371 12.3053 24.1252 12.3567 24.1032 12.2245ZM24.6022 13.2675C24.9619 12.4301 24.5362 11.8645 24.4041 11.7396C24.272 11.6221 24.1913 11.5707 24.2353 11.7396C24.294 11.9967 24.0885 12.6579 24.4041 13.1427C24.5068 13.3043 24.5215 13.4585 24.6022 13.2675Z" fill="white" stroke="black" stroke-width="0.0616055"/>
<path d="M24.4106 13.4373C24.4914 12.9231 24.1978 12.4529 23.8822 12.2693C23.6987 12.1591 23.6914 12.1885 23.6914 12.3428C23.7061 12.8202 24.1538 13.2169 24.2859 13.4373C24.4106 13.6429 24.4033 13.4887 24.4106 13.4373Z" fill="white" stroke="black" stroke-width="0.0616055"/>
<path d="M24.3303 14.7734C24.0661 13.8037 24.6166 13.2455 24.7854 13.1353C24.9468 13.0177 25.0496 12.9737 24.9762 13.1573C24.8661 13.4291 24.9835 14.1857 24.5652 14.6632C24.4331 14.8248 24.3817 14.9937 24.3303 14.7734Z" fill="white" stroke="black" stroke-width="0.0616055"/>
<path d="M24.3883 14.561C24.6084 13.7162 24.1314 13.2388 23.9846 13.1433C23.8452 13.0478 23.7571 13.011 23.8231 13.1653C23.9112 13.4004 23.8158 14.0615 24.1828 14.4728C24.3002 14.6124 24.3442 14.752 24.3883 14.561Z" fill="white" stroke="black" stroke-width="0.0616055"/>
<path d="M24.117 14.1633C23.7207 14.5893 23.7133 15.2137 23.8895 15.581C23.9996 15.794 24.0142 15.7793 24.117 15.625C24.3959 15.177 24.2271 14.5305 24.2417 14.2441C24.2491 13.9723 24.161 14.1192 24.117 14.1633Z" fill="white" stroke="black" stroke-width="0.0616055"/>
<path d="M24.7699 14.8399C24.7699 15.4275 24.4103 15.905 24.0286 16.0519C23.8085 16.1327 23.8085 16.1107 23.8378 15.9344C23.9406 15.2733 24.447 15.0309 24.6304 14.8179C24.8066 14.6122 24.7699 14.7811 24.7699 14.8399Z" fill="white" stroke="black" stroke-width="0.0616055"/>
<path d="M23.4051 16.5889C24.051 16.0012 23.706 15.5898 23.7354 15.2079C23.7501 15.0022 23.6694 15.0536 23.596 15.1271C23.185 15.5311 23.163 16.251 23.251 16.5301C23.2877 16.655 23.3464 16.6403 23.4051 16.5889Z" fill="white" stroke="black" stroke-width="0.0616055"/>
<path d="M24.2721 16.2057C24.0593 16.8521 23.4942 17.2488 23.0171 17.2708C22.7382 17.2855 22.7456 17.2635 22.841 17.0725C23.2006 16.382 23.8391 16.3012 24.1253 16.1249C24.3895 15.9633 24.2941 16.1396 24.2721 16.2057Z" fill="white" stroke="black" stroke-width="0.0616055"/>
<path d="M22.5169 17.4181C23.3536 16.9994 23.1848 16.3016 23.3389 16.1253C23.449 16.0004 23.3169 16.0151 23.2508 16.0592C22.7591 16.3456 22.3628 16.8011 22.3555 17.2859C22.3555 17.4695 22.3701 17.4916 22.5169 17.4181Z" fill="white" stroke="black" stroke-width="0.0616055"/>
<path d="M21.3726 18.1968C22.4294 18.3657 22.9211 17.5651 23.2293 17.4916C23.3908 17.4549 23.2734 17.3888 23.1926 17.3814C22.4881 17.3006 21.5927 17.6312 21.3212 17.9985C21.2111 18.1454 21.2111 18.1748 21.3726 18.1968Z" fill="white" stroke="black" stroke-width="0.0616055"/>
<path d="M22.4444 16.9406C22.2316 17.6384 21.439 18.2114 20.8445 18.2554C20.5657 18.2775 20.5657 18.2481 20.6684 18.0645C21.1454 17.1977 21.9747 17.0508 22.2683 16.8304C22.5178 16.6394 22.4665 16.8745 22.4444 16.9406ZM20.2134 9.12478C20.3088 8.5812 21.1087 8.54448 21.2335 8.45633C21.3803 8.36083 21.3583 8.45633 21.3069 8.60324C21.1601 8.98522 20.6611 9.13948 20.4336 9.18355C20.2501 9.21293 20.1914 9.22762 20.2134 9.12478Z" fill="white" stroke="black" stroke-width="0.0616055"/>
<path d="M19.9706 9.13912C19.8899 8.58085 20.6825 8.31641 20.7779 8.19153C20.888 8.05931 20.9027 8.14011 20.8513 8.29437C20.7559 8.62492 20.4109 9.01425 20.2055 9.11708C20.0367 9.20523 19.9853 9.24196 19.9706 9.13912Z" fill="white" stroke="black" stroke-width="0.0616055"/>
<path d="M19.3183 9.46313C19.2449 8.79468 19.8907 8.69184 20.0595 8.47881C20.1696 8.34659 20.1769 8.42005 20.1403 8.57431C20.0669 8.91221 19.7439 9.30887 19.5458 9.43375C19.3917 9.52924 19.3256 9.56597 19.3183 9.46313Z" fill="white" stroke="black" stroke-width="0.0616055"/>
<path d="M19.5155 9.315C20.1833 8.8816 20.653 9.12401 20.8438 9.10197C21.0273 9.07994 21.086 9.19747 20.7704 9.37376C20.3815 9.58679 19.8384 9.5574 19.6256 9.4766C19.4054 9.38845 19.4714 9.34438 19.5155 9.315ZM18.51 9.60882C18.7155 8.88895 19.1926 9.00648 19.332 8.91833C19.4714 8.83018 19.4861 8.85222 19.4568 9.01383C19.398 9.30031 18.9063 9.61617 18.6641 9.71166C18.5761 9.74105 18.466 9.78512 18.51 9.60882Z" fill="white" stroke="black" stroke-width="0.0616055"/>
<path d="M18.6056 9.73291C19.178 9.27014 19.6257 9.61538 19.8018 9.56396C19.9339 9.52724 19.8752 9.61538 19.8238 9.65211C19.4569 9.90921 19.0019 10.0488 18.6496 9.88717C18.5102 9.82841 18.5028 9.81372 18.6056 9.73291ZM17.3653 10.203C17.3579 9.74761 18.2973 9.55662 18.4955 9.27748C18.6129 9.10853 18.7157 9.19668 18.6569 9.46847C18.5689 9.82106 17.923 10.2104 17.5708 10.2838C17.3579 10.3279 17.3653 10.2545 17.3653 10.203Z" fill="white" stroke="black" stroke-width="0.0616055"/>
<path d="M17.3957 10.2862C17.9902 9.74994 18.4892 9.92623 18.6727 9.87481C18.8562 9.83074 18.9296 9.94092 18.6433 10.1613C18.2911 10.4257 17.748 10.4772 17.5205 10.4257C17.293 10.3743 17.3517 10.3229 17.3957 10.2862ZM16.3316 11.0722C16.5004 10.2935 17.0361 10.1319 17.1682 9.985C17.293 9.83808 17.4251 9.88216 17.315 10.2347C17.1829 10.6535 16.7499 11.0207 16.5224 11.1089C16.3022 11.2044 16.3169 11.1309 16.3316 11.0722Z" fill="white" stroke="black" stroke-width="0.0616055"/>
<path d="M16.3375 11.1737C16.7705 10.4759 17.3356 10.4979 17.5117 10.4024C17.6805 10.2996 17.7979 10.3877 17.5704 10.6889C17.3062 11.0562 16.7631 11.2619 16.5136 11.2766C16.2641 11.2913 16.3081 11.2252 16.3375 11.1737Z" fill="white" stroke="black" stroke-width="0.0616055"/>
<path d="M15.7794 12.0032C15.5299 11.2099 16.1024 10.916 16.1611 10.7838C16.2271 10.6516 16.2932 10.6516 16.3299 10.7912C16.4913 11.3568 15.9703 11.9077 15.8895 12.0179C15.8088 12.1207 15.7941 12.0693 15.7794 12.0032Z" fill="white" stroke="black" stroke-width="0.0616055"/>
<path d="M15.898 12.2245C16.0961 11.3356 16.6172 11.3871 16.7346 11.2622C16.8594 11.1373 16.874 11.2254 16.852 11.3871C16.7933 11.8204 16.2722 12.1143 16.0374 12.2612C15.964 12.3053 15.8759 12.3567 15.898 12.2245ZM15.3989 13.2675C15.0393 12.4301 15.465 11.8645 15.5971 11.7396C15.7292 11.6221 15.8099 11.5707 15.7659 11.7396C15.7071 11.9967 15.9126 12.6579 15.5971 13.1427C15.4943 13.3043 15.4796 13.4585 15.3989 13.2675Z" fill="white" stroke="black" stroke-width="0.0616055"/>
<path d="M15.5897 13.4373C15.509 12.9231 15.8025 12.4529 16.1181 12.2693C16.3016 12.1591 16.3089 12.1885 16.3089 12.3428C16.2943 12.8202 15.8466 13.2169 15.7145 13.4373C15.5897 13.6429 15.597 13.4887 15.5897 13.4373Z" fill="white" stroke="black" stroke-width="0.0616055"/>
<path d="M15.67 14.7734C15.9342 13.8037 15.3837 13.2455 15.2149 13.1353C15.0535 13.0177 14.9507 12.9737 15.0241 13.1573C15.1342 13.4291 15.0168 14.1857 15.4351 14.6632C15.5672 14.8248 15.6112 14.9937 15.67 14.7734Z" fill="white" stroke="black" stroke-width="0.0616055"/>
<path d="M15.6118 14.561C15.3916 13.7162 15.8687 13.2388 16.0155 13.1433C16.1549 13.0478 16.243 13.011 16.1769 13.1653C16.0888 13.4004 16.1843 14.0615 15.8173 14.4728C15.6999 14.6124 15.6558 14.752 15.6118 14.561Z" fill="white" stroke="black" stroke-width="0.0616055"/>
<path d="M15.8828 14.1633C16.2791 14.5893 16.2865 15.2137 16.1103 15.581C16.0002 15.794 15.9856 15.7793 15.8828 15.625C15.6039 15.177 15.7727 14.5305 15.758 14.2441C15.7507 13.9723 15.8388 14.1192 15.8828 14.1633Z" fill="white" stroke="black" stroke-width="0.0616055"/>
<path d="M15.2297 14.8399C15.2297 15.4275 15.5893 15.905 15.971 16.0519C16.1911 16.1327 16.1911 16.1107 16.1618 15.9344C16.059 15.2733 15.5527 15.0309 15.3692 14.8179C15.193 14.6122 15.2297 14.7811 15.2297 14.8399Z" fill="white" stroke="black" stroke-width="0.0616055"/>
<path d="M16.5956 16.5889C15.9497 16.0012 16.2947 15.5898 16.2653 15.2079C16.2506 15.0022 16.3314 15.0536 16.4047 15.1271C16.8157 15.5311 16.8377 16.251 16.7497 16.5301C16.713 16.655 16.6543 16.6403 16.5956 16.5889Z" fill="white" stroke="black" stroke-width="0.0616055"/>
<path d="M15.7282 16.2057C15.941 16.8521 16.5061 17.2488 16.9832 17.2708C17.2621 17.2855 17.2547 17.2635 17.1593 17.0725C16.7997 16.382 16.1612 16.3012 15.875 16.1249C15.6108 15.9633 15.7062 16.1396 15.7282 16.2057Z" fill="white" stroke="black" stroke-width="0.0616055"/>
<path d="M17.4834 17.4181C16.6467 16.9994 16.8155 16.3016 16.6614 16.1253C16.5513 16.0004 16.6834 16.0151 16.7495 16.0592C17.2412 16.3456 17.6375 16.8011 17.6448 17.2859C17.6448 17.4695 17.6302 17.4916 17.4834 17.4181Z" fill="white" stroke="black" stroke-width="0.0616055"/>
<path d="M18.6288 18.1968C17.572 18.3657 17.0803 17.5651 16.7721 17.4916C16.6106 17.4549 16.7281 17.3888 16.8088 17.3814C17.5133 17.3006 18.4087 17.6312 18.6802 17.9985C18.7903 18.1454 18.7903 18.1748 18.6288 18.1968Z" fill="white" stroke="black" stroke-width="0.0616055"/>
<path d="M17.5569 16.9393C17.7697 17.6372 18.5623 18.2101 19.1568 18.2542C19.4357 18.2762 19.4357 18.2469 19.3329 18.0632C18.8559 17.1964 18.0266 17.0495 17.733 16.8291C17.4835 16.6382 17.5349 16.8732 17.5569 16.9393Z" fill="white" stroke="black" stroke-width="0.0616055"/>
<path d="M21.2402 9.79976C21.0994 9.69974 20.5861 9.75781 20.4923 9.69006C20.6741 9.84492 21.0848 9.73523 21.2402 9.79976ZM22.4809 10.0643C22.3694 9.86751 21.7183 9.73523 21.6215 9.55778C21.7916 9.89655 22.2961 9.85138 22.4809 10.0643ZM22.3841 10.2902C22.1436 10.0579 21.5775 10.1547 21.4103 10.0127C21.8063 10.374 22.0263 10.0934 22.3841 10.2934V10.2902ZM20.9674 9.25128C21.1229 9.33194 21.3135 9.4126 21.4074 9.60295C21.2989 9.45454 21.0994 9.39647 20.9381 9.27387C20.9469 9.27387 20.9616 9.25774 20.9674 9.25128ZM23.3754 10.7644C23.2786 10.5418 22.9414 10.2998 22.912 10.2192C23.0088 10.5063 23.2874 10.5741 23.3754 10.7644ZM23.4634 11.1516C23.1701 10.6902 22.7067 10.7418 22.5249 10.5644C22.6627 10.7354 23.1936 10.8451 23.4634 11.1516ZM24.1468 11.8646C24.1674 11.3742 23.8007 11.1871 23.7861 10.9096C23.7802 11.2419 24.1615 11.6904 24.1468 11.8646ZM23.962 12.1292C23.8887 11.7033 23.3901 11.6742 23.3021 11.4258C23.3021 11.6581 23.8887 11.9033 23.962 12.1292ZM24.3727 11.8872C24.6366 12.2098 24.4548 12.7034 24.5633 13.0616C24.4313 12.797 24.4988 12.1388 24.3727 11.8872ZM23.9415 13.268C24.3375 13.6939 24.1762 14.1714 24.3375 14.3779C24.138 14.0875 24.1674 13.5326 23.9415 13.268ZM24.7628 13.3261C24.4255 13.7004 24.6308 14.265 24.4548 14.5328C24.6513 14.3037 24.622 13.6036 24.7628 13.3261ZM24.3375 13.3261C24.2935 12.8938 23.8887 12.6647 23.8535 12.4292C23.8095 12.6647 24.2407 13.0325 24.3375 13.3261ZM24.1322 14.3618C24.1967 14.665 23.9562 15.3103 24.0295 15.5071C23.8682 15.1619 24.1674 14.5069 24.1322 14.3618ZM24.6513 15.0522C24.49 15.5878 24.1674 15.5523 24.0647 15.8749C24.138 15.5684 24.5633 15.2877 24.6513 15.0522ZM23.6042 15.3038C23.3901 15.662 23.5661 16.0749 23.3901 16.3298C23.6394 16.0717 23.5074 15.5974 23.6042 15.3038ZM24.1175 16.2879C23.8594 16.7654 23.3314 16.7202 23.1203 17.0654C23.3314 16.6331 23.9855 16.5589 24.1175 16.2879ZM23.1848 16.2266C22.7302 16.5427 22.868 16.8718 22.5249 17.2267C22.956 16.8718 22.9208 16.4847 23.1848 16.2266ZM22.9707 17.5074C22.5307 17.4913 21.9001 18.0656 21.5188 18.0204C21.9001 18.1011 22.6041 17.5881 22.9707 17.5042V17.5074ZM22.2609 16.9912C22.2316 17.4397 21.0877 17.7268 20.9616 18.0268C21.0994 17.63 22.1054 17.3364 22.2609 16.9944V16.9912ZM19.6681 8.73185C19.5215 8.60279 19.3455 8.50278 19.2956 8.37695C19.3308 8.53827 19.4775 8.65764 19.6241 8.76411C19.6388 8.75766 19.6534 8.73507 19.6681 8.73185ZM19.4188 8.8609C19.193 8.75121 18.929 8.75766 18.8117 8.60279C18.885 8.75766 19.1343 8.81896 19.3455 8.89962C19.3689 8.88348 19.3983 8.86735 19.4217 8.8609H19.4188ZM18.7589 9.80298C18.8997 9.69974 19.4129 9.75781 19.5068 9.69329C19.3249 9.84492 18.9143 9.73523 18.7589 9.80298ZM17.5182 10.0675C17.6297 9.86751 18.2808 9.73523 18.3776 9.56101C18.2075 9.89655 17.703 9.85138 17.5182 10.0675ZM17.615 10.2934C17.8555 10.0579 18.4216 10.1547 18.5917 10.0159C18.1957 10.374 17.9758 10.0966 17.615 10.2934ZM18.5917 9.60295C18.7295 9.31258 19.1255 9.27387 19.2282 9.09642C19.0756 9.36098 18.7383 9.40615 18.5917 9.60295ZM19.7209 9.34485C20.1257 9.15449 20.5216 9.31581 20.7123 9.2287C20.4776 9.35452 19.9203 9.29323 19.7209 9.34807V9.34485ZM16.6236 10.7644C16.7204 10.545 17.0577 10.2998 17.0871 10.2192C16.9903 10.5095 16.7116 10.5741 16.6236 10.7644ZM16.5357 11.1516C16.829 10.6902 17.2924 10.7418 17.4742 10.5644C17.3364 10.7354 16.8084 10.8451 16.5357 11.1548V11.1516ZM15.8523 11.8646C15.8317 11.3742 16.1984 11.1871 16.213 10.9096C16.2189 11.2419 15.8376 11.6904 15.8523 11.8646ZM16.037 12.1292C16.1104 11.7033 16.609 11.6775 16.697 11.4258C16.697 11.6613 16.1104 11.9033 16.037 12.1292ZM15.6264 11.8872C15.3624 12.2098 15.5443 12.7034 15.4358 13.0616C15.5678 12.8002 15.5003 12.1388 15.6264 11.8872ZM16.0576 13.268C15.6616 13.6939 15.8229 14.1714 15.6616 14.3779C15.8611 14.0907 15.8317 13.5326 16.0576 13.268ZM15.2363 13.3293C15.5736 13.7036 15.3683 14.265 15.5443 14.5328C15.3478 14.3069 15.3771 13.6068 15.2363 13.3293ZM15.6616 13.3293C15.7056 12.8938 16.1104 12.6679 16.1456 12.4324C16.1896 12.6679 15.7584 13.0357 15.6616 13.3293ZM15.8669 14.3618C15.8024 14.665 16.0429 15.3103 15.9696 15.5103C16.1309 15.1651 15.8317 14.5102 15.8669 14.365V14.3618ZM15.3478 15.0522C15.5091 15.591 15.8317 15.5523 15.9344 15.8749C15.8611 15.5684 15.4358 15.2877 15.3478 15.0554V15.0522ZM16.3978 15.3038C16.609 15.6652 16.433 16.0749 16.609 16.333C16.3597 16.0749 16.4917 15.5974 16.3978 15.3038ZM15.8816 16.2879C16.1397 16.7654 16.6676 16.7202 16.8788 17.0654C16.6676 16.6331 16.0136 16.5589 15.8816 16.2879ZM16.8143 16.2298C17.2689 16.546 17.1311 16.8751 17.4742 17.2299C17.0431 16.8751 17.0783 16.4879 16.8143 16.2298ZM17.0284 17.5074C17.4684 17.4913 18.0989 18.0656 18.4802 18.0236C18.0989 18.1011 17.395 17.5881 17.0284 17.5074ZM17.7411 16.9912C17.7705 17.4429 18.9143 17.7268 19.0375 18.0301C18.8997 17.6332 17.8936 17.3396 17.7382 16.9944L17.7411 16.9912ZM19.4041 9.36098C19.4921 8.96414 19.9321 8.88994 19.9907 8.65442C19.9702 8.90607 19.4481 9.18353 19.4041 9.3642V9.36098ZM20.7035 8.37695C20.6389 8.677 20.1609 8.84799 20.0963 9.07384C20.1169 8.76734 20.6096 8.58989 20.7035 8.37695ZM20.331 9.08674C20.5568 8.72217 21.0261 8.81896 21.1903 8.60279C21.073 8.85445 20.4923 8.8609 20.331 9.08674Z" fill="#006233"/>
<path d="M23.4365 13.6267C23.4365 15.5366 21.8908 17.082 19.9844 17.082C18.0779 17.082 16.5352 15.5366 16.5352 13.6299C16.5352 11.7199 18.0779 10.1777 19.9844 10.1777C21.8908 10.1777 23.4365 11.7199 23.4365 13.6299V13.6267Z" stroke="#F7C608" stroke-width="0.0612999" stroke-linecap="round" stroke-linejoin="round"/>
<path d="M19.3081 17.0867L19.2964 17.1287C19.2876 17.1577 19.2612 17.1706 19.2319 17.1706C19.1586 17.148 19.0676 17.1287 18.9826 17.1061L19.0618 16.8383C19.144 16.8621 19.2272 16.8814 19.3111 16.8964C19.3404 16.9028 19.3551 16.9286 19.3463 16.9609L19.3345 16.9932M18.7421 16.8286L18.7538 16.7867C18.7626 16.7544 18.789 16.7415 18.8183 16.7512C18.8858 16.777 18.9679 16.8093 19.0618 16.8383L18.9826 17.1061C18.8946 17.0803 18.8125 17.0545 18.7391 17.0254C18.7098 17.0093 18.7039 16.9544 18.7127 16.9286" fill="#F7C608"/>
<path d="M19.2612 17.0627L19.2524 17.0917C19.2465 17.1111 19.223 17.124 19.1996 17.1208L18.9943 17.0627L19.05 16.8723C19.1177 16.8926 19.1862 16.9099 19.2553 16.924C19.2817 16.9304 19.2934 16.9498 19.2846 16.9723L19.2788 16.9949M18.786 16.8562L18.7948 16.8239C18.8007 16.8046 18.8241 16.7949 18.8476 16.8046L19.05 16.8723L18.9913 17.0659C18.9222 17.047 18.8538 17.0255 18.786 17.0014C18.7684 16.9885 18.7596 16.9465 18.7655 16.9272" fill="#006233"/>
<path d="M18.3638 16.7506L18.3403 16.7893C18.3256 16.8119 18.2963 16.8216 18.267 16.8087C18.2054 16.77 18.1203 16.7248 18.047 16.6764L18.1966 16.4409C18.2689 16.488 18.3433 16.5311 18.4195 16.5699C18.4459 16.5861 18.4517 16.6151 18.4371 16.6409L18.4165 16.6732M17.8945 16.3441L17.9179 16.3054C17.9326 16.2828 17.9649 16.2731 17.9883 16.2893C18.047 16.3377 18.1174 16.3893 18.1966 16.4409L18.047 16.6764C17.9747 16.6314 17.9042 16.583 17.8358 16.5312C17.8123 16.5086 17.8241 16.4538 17.8358 16.4312" fill="#F7C608"/>
<path d="M18.3255 16.7143L18.3079 16.7401C18.2961 16.7595 18.2727 16.7627 18.2492 16.753L18.0674 16.6401L18.1759 16.4724C18.2404 16.5175 18.3108 16.553 18.3607 16.5821C18.3812 16.595 18.39 16.6143 18.3753 16.6337L18.3607 16.6563M17.9266 16.382L17.9442 16.3562C17.9559 16.3401 17.9794 16.3369 18.0028 16.3498C18.0591 16.3929 18.1168 16.4338 18.1759 16.4724L18.0674 16.6401C18.0069 16.6037 17.9481 16.5639 17.8914 16.5208C17.8738 16.5046 17.8767 16.4627 17.8884 16.4465" fill="#006233"/>
<path d="M17.5535 16.1639L17.5183 16.193C17.4977 16.2123 17.4655 16.2091 17.442 16.193L17.266 16.0026L17.4801 15.822C17.5388 15.8929 17.6092 15.9607 17.6561 16.0059C17.6766 16.0284 17.6737 16.0575 17.6532 16.0768L17.6238 16.1026M17.2132 15.6413L17.2484 15.609C17.259 15.5994 17.2726 15.5947 17.2863 15.5959C17.3 15.5971 17.3127 15.6041 17.3217 15.6155C17.3702 15.6873 17.4221 15.7562 17.4772 15.822L17.2689 16.0026C17.2117 15.9396 17.1569 15.8739 17.1047 15.8058C17.093 15.7768 17.1164 15.7252 17.137 15.709" fill="#F7C608"/>
<path d="M17.525 16.1189L17.5015 16.1383C17.4868 16.1544 17.4634 16.148 17.4428 16.1351L17.2962 15.9738L17.4487 15.8447C17.4955 15.8987 17.5444 15.9504 17.5954 15.9996C17.613 16.0189 17.613 16.0415 17.5954 16.0576L17.5778 16.0738M17.2375 15.6866L17.261 15.6705C17.2786 15.6544 17.3021 15.6576 17.3197 15.6769C17.3604 15.7349 17.4034 15.7909 17.4487 15.8447L17.2991 15.9738C17.2517 15.9225 17.2067 15.8687 17.1642 15.8124C17.1495 15.7899 17.1642 15.7511 17.1818 15.7382" fill="#006233"/>
<path d="M16.9424 15.3699L16.9014 15.3893C16.875 15.4022 16.8427 15.3893 16.828 15.3667C16.7987 15.3022 16.7488 15.215 16.7107 15.1376L16.9659 15.0215C17.007 15.1086 17.0539 15.1925 17.0861 15.2473C17.0979 15.2763 17.0861 15.3054 17.0627 15.3151L17.0275 15.3312M16.7635 14.773L16.8046 14.7537C16.8339 14.744 16.8632 14.7537 16.872 14.7795C16.8993 14.862 16.9307 14.9427 16.9659 15.0215L16.7137 15.1376C16.6755 15.057 16.6403 14.9763 16.6139 14.8989C16.6081 14.8666 16.6433 14.8279 16.6726 14.815" fill="#F7C608"/>
<path d="M16.9263 15.3176L16.897 15.3305C16.8794 15.3402 16.8559 15.3305 16.8413 15.3111L16.7474 15.1176L16.9293 15.0337C16.9597 15.0999 16.993 15.1645 17.029 15.2273C17.0378 15.2466 17.029 15.2692 17.0114 15.2789L16.9879 15.2918M16.7709 14.8272L16.8002 14.8143C16.8178 14.8046 16.8413 14.8143 16.8501 14.8369C16.8706 14.8949 16.897 14.9659 16.9293 15.0369L16.7474 15.1176C16.7166 15.0544 16.6882 14.9898 16.6624 14.924C16.6594 14.8982 16.6829 14.8659 16.7034 14.8595" fill="#006233"/>
<path d="M16.5744 14.4362L16.5304 14.4426C16.517 14.4444 16.5034 14.4413 16.4917 14.4337C16.48 14.4261 16.471 14.4145 16.4659 14.4007L16.4219 14.1458L16.6976 14.1071C16.7097 14.192 16.7264 14.276 16.7475 14.3587C16.7533 14.391 16.7357 14.4136 16.7064 14.4168L16.6683 14.4233M16.5744 13.8135L16.6184 13.807C16.6478 13.8038 16.6712 13.82 16.6771 13.8522C16.6771 13.9232 16.6829 14.0135 16.6976 14.1103L16.4219 14.1458C16.4102 14.0587 16.3955 13.9748 16.3926 13.8909C16.3955 13.8587 16.4424 13.8329 16.4718 13.8264" fill="#F7C608"/>
<path d="M16.5754 14.3859L16.546 14.3892C16.5255 14.3924 16.5079 14.3763 16.4991 14.3537C16.4903 14.2924 16.4727 14.2149 16.4639 14.1407L16.6604 14.1117C16.6709 14.1834 16.6846 14.2544 16.7015 14.3246C16.7015 14.3472 16.6927 14.3666 16.6721 14.3698L16.6428 14.3763M16.5666 13.8665L16.5959 13.8633C16.6193 13.8633 16.6369 13.8762 16.6399 13.902C16.6428 13.9601 16.6487 14.0343 16.6604 14.1117L16.461 14.144C16.4522 14.0698 16.4404 13.9956 16.4375 13.931C16.4375 13.9052 16.4727 13.8826 16.4962 13.8794" fill="#006233"/>
<path d="M16.4864 13.4408L16.4424 13.4343C16.4131 13.4311 16.3955 13.4021 16.3926 13.373L16.4219 13.1182L16.6976 13.1601C16.6863 13.2446 16.6795 13.3297 16.6771 13.415C16.6712 13.444 16.6478 13.4634 16.6184 13.4569L16.5803 13.4537M16.6624 12.8407L16.7064 12.8471C16.7357 12.8536 16.7533 12.8794 16.7475 12.9052C16.7266 12.9891 16.71 13.0742 16.6976 13.1601L16.4219 13.1182C16.433 13.0336 16.4477 12.9496 16.4659 12.8665C16.4776 12.8342 16.5304 12.8213 16.5598 12.8278" fill="#F7C608"/>
<path d="M16.505 13.3887L16.4727 13.3822C16.4522 13.3822 16.4375 13.3596 16.4375 13.3338L16.4639 13.1241L16.6604 13.1499C16.6504 13.2216 16.6435 13.2937 16.6399 13.3661C16.6369 13.3887 16.6193 13.4048 16.5988 13.4016L16.5695 13.3983M16.6399 12.8886L16.6692 12.895C16.6927 12.895 16.7044 12.9176 16.6985 12.9402C16.6868 13.0015 16.6692 13.0725 16.6604 13.1499L16.4639 13.1241C16.4727 13.0499 16.4844 12.9789 16.4991 12.9112C16.5079 12.8886 16.546 12.8789 16.5666 12.8789" fill="#006233"/>
<path d="M16.6834 12.4552L16.6453 12.4359C16.616 12.4262 16.6072 12.3971 16.613 12.3649C16.6424 12.3004 16.6746 12.21 16.7128 12.1294L16.965 12.2455C16.9299 12.3232 16.8985 12.4029 16.8711 12.4843C16.8594 12.5133 16.8301 12.523 16.8037 12.5101L16.7714 12.4972M17.0207 11.9326L17.0589 11.9487C17.0882 11.9616 17.097 11.9906 17.0853 12.0164C17.0416 12.0893 17.0015 12.1647 16.965 12.2423L16.7128 12.1294C16.7463 12.0509 16.7835 11.9745 16.8242 11.9003C16.8448 11.8745 16.9005 11.8745 16.9269 11.8874" fill="#F7C608"/>
<path d="M16.7154 12.4137L16.686 12.3975C16.6655 12.3911 16.6567 12.3653 16.6655 12.3427L16.7476 12.1491L16.9295 12.2298C16.9003 12.294 16.8739 12.3596 16.8503 12.4266C16.8415 12.4492 16.821 12.4588 16.8004 12.4524L16.774 12.4395M16.9823 11.9717L17.0116 11.9846C17.0321 11.9943 17.038 12.0168 17.0292 12.0394C16.9934 12.1012 16.9601 12.1647 16.9295 12.2298L16.7476 12.1459C16.7765 12.08 16.8078 12.0154 16.8415 11.9523C16.8562 11.933 16.9001 11.933 16.9177 11.9394" fill="#006233"/>
<path d="M17.1508 11.5701L17.1156 11.541C17.0951 11.5217 17.0922 11.4894 17.1068 11.4636C17.1538 11.4088 17.2095 11.3313 17.2681 11.2636L17.4793 11.4475C17.4232 11.5121 17.3704 11.5799 17.3209 11.6507C17.312 11.6612 17.2999 11.6676 17.2869 11.6688C17.2739 11.67 17.2609 11.6659 17.2505 11.6572L17.2212 11.6314M17.6201 11.1603L17.6524 11.1926C17.6758 11.2087 17.6788 11.241 17.6582 11.2636C17.5958 11.3216 17.5361 11.3829 17.4793 11.4475L17.2681 11.2636L17.4441 11.0765C17.4676 11.0571 17.5204 11.0765 17.5438 11.0926" fill="#F7C608"/>
<path d="M17.1899 11.5339L17.1664 11.5145C17.1488 11.5016 17.1488 11.4758 17.1605 11.4532L17.2984 11.2919L17.448 11.4209C17.4017 11.4746 17.3576 11.5306 17.316 11.5887C17.3013 11.6081 17.2778 11.6113 17.2602 11.5984L17.2397 11.579M17.5711 11.1886L17.5975 11.208C17.6122 11.2241 17.6122 11.2467 17.5975 11.2661C17.5468 11.3155 17.4978 11.3672 17.4509 11.4209L17.2984 11.2919C17.3433 11.235 17.3913 11.1811 17.4421 11.1306C17.4597 11.1144 17.5008 11.1273 17.5154 11.1403" fill="#006233"/>
<path d="M17.8434 10.8485L17.82 10.8098C17.8024 10.784 17.8112 10.7549 17.8317 10.7324L18.0429 10.5872L18.1925 10.8227C18.1218 10.8694 18.0532 10.92 17.9872 10.9743C17.9814 10.9786 17.9749 10.9815 17.9681 10.983C17.9613 10.9845 17.9543 10.9845 17.9475 10.983C17.9406 10.9815 17.9342 10.9785 17.9284 10.9743C17.9226 10.97 17.9177 10.9646 17.9138 10.9582L17.8933 10.9259M18.4095 10.5872L18.433 10.6259C18.4506 10.6485 18.4418 10.6807 18.4183 10.6969C18.3411 10.7345 18.2657 10.7765 18.1925 10.8227L18.0429 10.5872C18.1162 10.5388 18.1895 10.4904 18.2629 10.4549C18.2922 10.4452 18.3391 10.4775 18.3509 10.5001" fill="#F7C608"/>
<path d="M17.8948 10.8263L17.8772 10.8005C17.8655 10.7811 17.8713 10.7586 17.8889 10.7424C17.9417 10.7102 18.0062 10.6618 18.0649 10.6198L18.1734 10.7876L18.0004 10.9134C17.9799 10.9263 17.9564 10.9231 17.9447 10.907L17.93 10.8844M18.3582 10.6005L18.3758 10.6295C18.3875 10.6456 18.3817 10.6682 18.3611 10.6811C18.2973 10.7138 18.2347 10.7493 18.1734 10.7876L18.0678 10.6198C18.1272 10.5808 18.1879 10.5442 18.2497 10.5101C18.2732 10.5004 18.3084 10.523 18.3201 10.5424" fill="#006233"/>
<path d="M18.7155 10.3519L18.7038 10.3099C18.695 10.2809 18.7096 10.2551 18.7331 10.2389C18.8064 10.2196 18.8944 10.1841 18.9795 10.1583L19.0586 10.4261C18.9762 10.4506 18.895 10.4797 18.8152 10.5132C18.7859 10.5228 18.7595 10.5067 18.7536 10.4809L18.7419 10.4454M19.3285 10.2615L19.3431 10.3035C19.3519 10.3357 19.3373 10.3615 19.308 10.368C19.2241 10.3831 19.1409 10.4025 19.0586 10.4261L18.9795 10.1583C19.0645 10.1357 19.1496 10.1099 19.2288 10.0938C19.2581 10.0938 19.2933 10.1357 19.3021 10.1647" fill="#F7C608"/>
<path d="M18.7681 10.3458L18.7593 10.3136C18.7534 10.2942 18.7652 10.2749 18.7886 10.2652C18.8473 10.2458 18.9206 10.22 18.9939 10.2007L19.0497 10.391C18.9804 10.4115 18.9119 10.4351 18.8444 10.462C18.8209 10.4652 18.8004 10.4588 18.7945 10.4362L18.7886 10.4136M19.2785 10.262L19.2872 10.2942C19.2931 10.3136 19.2785 10.3329 19.2579 10.3394C19.187 10.3537 19.1165 10.3709 19.0467 10.391L18.991 10.1974C19.0589 10.1766 19.1273 10.1583 19.1963 10.1426C19.2257 10.1426 19.2521 10.1716 19.255 10.191" fill="#006233"/>
<path d="M19.6895 10.1234V10.0814C19.6895 10.0492 19.7129 10.0298 19.7422 10.0201L19.9974 10.0137V10.2944C19.9122 10.2941 19.8271 10.2984 19.7422 10.3073C19.7129 10.3073 19.6895 10.2847 19.6895 10.2556V10.2202M20.3054 10.2105V10.2556C20.3054 10.2879 20.2849 10.3073 20.2555 10.3073C20.1697 10.2986 20.0836 10.2943 19.9974 10.2944V10.0137C20.0854 10.0137 20.1734 10.0137 20.2555 10.0201C20.2849 10.0266 20.3054 10.0782 20.3054 10.1072" fill="#F7C608"/>
<path d="M19.7422 10.1321V10.0999C19.7422 10.0805 19.7598 10.0644 19.7862 10.0579L20.0003 10.0547V10.2515C19.9288 10.2527 19.8574 10.257 19.7862 10.2644C19.7598 10.2644 19.7422 10.2483 19.7422 10.2257V10.1999M20.2555 10.1934V10.2257C20.2555 10.2483 20.2379 10.2644 20.2115 10.2644C20.1413 10.2569 20.0708 10.2526 20.0003 10.2515V10.0547L20.2115 10.0579C20.2379 10.0644 20.2555 10.0999 20.2555 10.1224" fill="#006233"/>
<path d="M20.6246 10.175L20.6364 10.1298C20.6422 10.104 20.6716 10.0879 20.7009 10.0879C20.7713 10.1072 20.8652 10.1266 20.9502 10.1524L20.874 10.4202C20.7907 10.3974 20.7066 10.3791 20.6217 10.3654C20.5924 10.3557 20.5777 10.3299 20.5865 10.3008L20.5983 10.2653M21.1937 10.4267L21.179 10.4686C21.1731 10.4976 21.1438 10.5138 21.1174 10.5041C21.0375 10.472 20.9562 10.444 20.874 10.4202L20.9502 10.1524C21.0325 10.1735 21.1138 10.1993 21.1937 10.2298C21.223 10.2428 21.2289 10.3008 21.223 10.3266" fill="#F7C608"/>
<path d="M20.6755 10.1985L20.6813 10.1662C20.6872 10.1469 20.7107 10.134 20.7341 10.1372C20.7928 10.1566 20.869 10.1695 20.9394 10.1921L20.8866 10.3856C20.8179 10.3653 20.7484 10.3481 20.6784 10.334C20.6549 10.3276 20.6403 10.3082 20.6491 10.2888L20.6549 10.263M21.1477 10.3985L21.1389 10.4308C21.133 10.4502 21.1095 10.4598 21.089 10.4534C21.0215 10.4267 20.953 10.4031 20.8837 10.3824L20.9424 10.1888L21.1447 10.2534C21.1682 10.2663 21.1741 10.3082 21.1682 10.3276" fill="#006233"/>
<path d="M21.5703 10.4984L21.5938 10.4661C21.6114 10.4371 21.6407 10.4338 21.67 10.4403L21.89 10.5693L21.7434 10.8081C21.67 10.7631 21.5946 10.7222 21.5175 10.6855C21.5117 10.6822 21.5065 10.6775 21.5024 10.6719C21.4983 10.6662 21.4954 10.6597 21.4937 10.6527C21.492 10.6457 21.4917 10.6384 21.4928 10.6313C21.4939 10.6241 21.4963 10.6173 21.4999 10.6113L21.5204 10.579M22.0484 10.9017L22.022 10.9404C22.0143 10.9523 22.0027 10.9607 21.9897 10.9637C21.9766 10.9666 21.963 10.9641 21.9516 10.9565C21.8844 10.9034 21.8149 10.8539 21.7434 10.8081L21.89 10.5726C21.9663 10.6177 22.0396 10.6661 22.1041 10.7145C22.1246 10.7371 22.1158 10.792 22.1012 10.8178" fill="#F7C608"/>
<path d="M21.6099 10.5362L21.6275 10.5104C21.6392 10.491 21.6627 10.4878 21.6861 10.4975C21.736 10.5297 21.8064 10.5652 21.868 10.6072L21.7624 10.7749C21.7012 10.7365 21.6386 10.701 21.5747 10.6685C21.5542 10.6556 21.5454 10.6362 21.56 10.6168L21.5747 10.5943M22.0088 10.862L21.9941 10.8879C21.9824 10.9072 21.9589 10.9104 21.9354 10.8975C21.8783 10.854 21.8196 10.8131 21.7595 10.7749L21.868 10.6072C21.9296 10.6459 21.9941 10.6846 22.044 10.7233C22.0645 10.7427 22.0616 10.7814 22.0498 10.8007" fill="#006233"/>
<path d="M22.3867 11.0787L22.4189 11.0529C22.4424 11.0303 22.4717 11.0335 22.4981 11.0529C22.5451 11.1077 22.6155 11.1722 22.6741 11.24L22.4629 11.4239C22.4053 11.3591 22.3446 11.2977 22.2811 11.24C22.2635 11.2174 22.2664 11.1884 22.287 11.169L22.3163 11.1432M22.7269 11.6013L22.6946 11.6336C22.6841 11.6432 22.6705 11.6479 22.6568 11.6467C22.6431 11.6455 22.6304 11.6385 22.6213 11.6271C22.5803 11.5658 22.5245 11.4981 22.4629 11.4239L22.6741 11.24C22.7328 11.3045 22.7885 11.369 22.8354 11.4368C22.8501 11.4626 22.8266 11.5142 22.8061 11.5336" fill="#F7C608"/>
<path d="M22.4134 11.1265L22.4369 11.1039C22.4545 11.091 22.4779 11.0942 22.4955 11.1071C22.5366 11.1555 22.5953 11.2104 22.6422 11.2685L22.4955 11.3975C22.4469 11.3434 22.396 11.2917 22.343 11.2427C22.3284 11.2265 22.3284 11.2007 22.343 11.1878L22.3636 11.1684M22.7067 11.5524L22.6833 11.5717C22.6657 11.5846 22.6422 11.5814 22.6246 11.5653C22.5828 11.5073 22.5388 11.4513 22.4926 11.3975L22.6422 11.2685C22.6921 11.3201 22.739 11.3749 22.78 11.4298C22.7918 11.4491 22.7771 11.4878 22.7625 11.504" fill="#006233"/>
<path d="M23.0077 11.8682L23.0488 11.8489C23.0752 11.836 23.1045 11.8489 23.1221 11.8715C23.1514 11.936 23.2013 12.0199 23.2394 12.0973L22.9842 12.2167C22.9461 12.1296 22.8962 12.0489 22.864 11.9908C22.8522 11.965 22.864 11.936 22.8874 11.9231L22.9226 11.907M23.1866 12.4619L23.1485 12.4812C23.1221 12.4941 23.0928 12.4812 23.081 12.4554C23.0527 12.374 23.0204 12.2943 22.9842 12.2167L23.2394 12.1005C23.2759 12.1773 23.3092 12.2559 23.3391 12.336C23.345 12.3683 23.3098 12.407 23.2805 12.4199" fill="#F7C608"/>
<path d="M23.0217 11.9176L23.051 11.9047C23.0686 11.8983 23.0921 11.9047 23.1068 11.9273C23.1332 11.9821 23.1713 12.0531 23.2006 12.1209L23.0217 12.2015C22.9909 12.1376 22.9576 12.0752 22.922 12.0144C22.9103 11.9918 22.9161 11.9692 22.9367 11.9596L22.9601 11.9467M23.183 12.4112L23.1537 12.4242C23.1332 12.4338 23.1126 12.4242 23.1009 12.4016C23.0804 12.3435 23.054 12.2725 23.0217 12.2015L23.2006 12.1177C23.2322 12.1809 23.2616 12.2455 23.2886 12.3112C23.2916 12.3403 23.2681 12.3693 23.2476 12.379" fill="#006233"/>
<path d="M23.3784 12.7968L23.4224 12.7903C23.4518 12.7839 23.4782 12.8032 23.4899 12.8322L23.5339 13.0839L23.2611 13.1258C23.247 13.0409 23.2283 12.9568 23.2054 12.8742C23.2025 12.8452 23.2201 12.8193 23.2494 12.8161L23.2846 12.8097M23.3843 13.4194L23.3432 13.4259C23.3139 13.4291 23.2875 13.413 23.2846 13.3839L23.2611 13.1258L23.5339 13.0839C23.5486 13.171 23.5632 13.2581 23.5662 13.3388C23.5662 13.371 23.5163 13.4001 23.487 13.4033" fill="#F7C608"/>
<path d="M23.3795 12.8526L23.4088 12.8461C23.4323 12.8429 23.4499 12.859 23.4587 12.8816L23.4968 13.0913L23.3003 13.1236C23.2888 13.0518 23.2741 12.9808 23.2563 12.9106C23.2534 12.8881 23.2651 12.8687 23.2856 12.8655L23.315 12.859M23.3942 13.3655L23.3648 13.372C23.3443 13.3752 23.3238 13.3591 23.3208 13.3333C23.3169 13.2631 23.31 13.1931 23.3003 13.1236L23.4968 13.0913C23.5085 13.1655 23.5203 13.2365 23.5261 13.3043C23.5232 13.3301 23.488 13.3526 23.4675 13.3559" fill="#006233"/>
<path d="M23.4769 13.7947L23.5209 13.8012C23.5502 13.8012 23.5707 13.8302 23.5737 13.8592C23.5619 13.9335 23.5561 14.027 23.5443 14.1173L23.2686 14.0786C23.2833 13.9818 23.2892 13.8851 23.2892 13.8205C23.2921 13.7915 23.3185 13.7721 23.3478 13.7786L23.383 13.7818M23.3097 14.3948L23.2657 14.3884C23.2364 14.3851 23.2158 14.3593 23.2217 14.3303C23.2364 14.2593 23.2569 14.1722 23.2686 14.0786L23.5473 14.1141C23.5355 14.2012 23.5238 14.2883 23.5033 14.369C23.4945 14.398 23.4388 14.4109 23.4094 14.4077" fill="#F7C608"/>
<path d="M23.4617 13.8453L23.491 13.8486C23.5145 13.8486 23.5262 13.8712 23.5291 13.897L23.5057 14.1099L23.3062 14.0841C23.318 14.0034 23.3238 13.9228 23.3268 13.8712C23.3268 13.8453 23.3473 13.8292 23.3678 13.8324H23.3942M23.3297 14.3454L23.3004 14.3422C23.2769 14.339 23.2652 14.3164 23.271 14.2938C23.2828 14.2325 23.2974 14.1648 23.3092 14.0809L23.5057 14.1099C23.4965 14.1803 23.4848 14.2503 23.4705 14.3196C23.4646 14.3454 23.4235 14.3583 23.403 14.3519" fill="#006233"/>
<path d="M23.2918 14.7792L23.3299 14.7986C23.3593 14.8083 23.3681 14.8373 23.3622 14.8696C23.3329 14.9341 23.3035 15.0244 23.2654 15.1051L23.0102 14.9922C23.0444 14.9133 23.0748 14.8326 23.1012 14.7502C23.1129 14.7244 23.1422 14.7147 23.1686 14.7244L23.2038 14.7405M22.9574 15.3083L22.9193 15.289C22.89 15.2761 22.8812 15.247 22.89 15.2212C22.9281 15.1567 22.9721 15.0793 23.0102 14.9954L23.2654 15.1051C23.2302 15.1857 23.1921 15.2664 23.1539 15.3374C23.1363 15.3632 23.0806 15.36 23.0513 15.3471" fill="#F7C608"/>
<path d="M23.2583 14.82L23.2876 14.8362C23.3082 14.8458 23.314 14.8684 23.3082 14.891L23.226 15.0878L23.0442 15.0072C23.0725 14.9418 23.0979 14.8751 23.1204 14.8071C23.1322 14.7878 23.1527 14.7749 23.1732 14.7845L23.1967 14.7942M22.9914 15.2653L22.9621 15.2524C22.9445 15.2459 22.9386 15.2201 22.9474 15.1975C22.9822 15.1357 23.0145 15.0722 23.0442 15.0072L23.226 15.0878C23.198 15.1536 23.1677 15.2182 23.1351 15.2814C23.1204 15.304 23.0794 15.304 23.0618 15.2975" fill="#006233"/>
<path d="M22.8307 15.6721L22.8659 15.6979C22.8894 15.7173 22.8894 15.7495 22.8776 15.7753L22.7163 15.9754L22.5051 15.7947C22.5638 15.7237 22.6225 15.6463 22.6606 15.5914C22.6782 15.5688 22.7075 15.5656 22.731 15.585L22.7603 15.6076M22.3644 16.0818L22.3321 16.056C22.3086 16.0367 22.3057 16.0044 22.3262 15.9818C22.3879 15.923 22.4467 15.8605 22.5022 15.7947L22.7163 15.9754C22.6613 16.0427 22.6036 16.1073 22.5433 16.1689C22.5198 16.1851 22.467 16.1689 22.4436 16.1496" fill="#F7C608"/>
<path d="M22.79 15.7038L22.8164 15.7232C22.8311 15.7393 22.8311 15.7619 22.8194 15.7845L22.6844 15.949L22.5319 15.82C22.5847 15.7619 22.6316 15.6974 22.6639 15.6522C22.6786 15.6328 22.702 15.6296 22.7196 15.6425L22.7402 15.6586M22.4117 16.0555L22.3882 16.0329C22.3706 16.02 22.3706 15.9974 22.3882 15.978C22.4391 15.9277 22.488 15.8749 22.5348 15.82L22.6844 15.949C22.6397 16.0051 22.5928 16.0589 22.5436 16.1103C22.5231 16.1265 22.485 16.1168 22.4674 16.1006" fill="#006233"/>
<path d="M22.1416 16.3984L22.165 16.4339C22.1826 16.4597 22.1768 16.4887 22.1562 16.5113L21.9451 16.6597L21.7926 16.4242C21.8633 16.3775 21.9318 16.3269 21.9979 16.2726C22.0092 16.2637 22.0232 16.26 22.0369 16.2624C22.0507 16.2649 22.063 16.2731 22.0712 16.2855L22.0888 16.3177M21.5784 16.663L21.555 16.6242C21.5374 16.6017 21.5432 16.5694 21.5696 16.5533C21.6458 16.5142 21.7202 16.4711 21.7926 16.4242L21.9451 16.6597C21.8717 16.7049 21.7984 16.7565 21.7251 16.792C21.6958 16.8049 21.6518 16.7727 21.6371 16.7468" fill="#F7C608"/>
<path d="M22.0915 16.4171L22.1091 16.4462C22.1208 16.4623 22.1149 16.4849 22.0973 16.5042L21.9214 16.6236L21.8128 16.4591C21.8722 16.4187 21.9299 16.3757 21.9859 16.33C22.0064 16.3171 22.0299 16.3203 22.0416 16.3397L22.0563 16.3623M21.6281 16.6462L21.6134 16.6204C21.6017 16.601 21.6075 16.5784 21.6281 16.5655C21.6909 16.5328 21.7526 16.4973 21.8128 16.4591L21.9214 16.6236C21.8627 16.6655 21.7982 16.7043 21.7395 16.7365C21.7161 16.7462 21.6809 16.7268 21.6691 16.7075" fill="#006233"/>
<path d="M21.2767 16.8995L21.2884 16.9447C21.2972 16.9705 21.2826 16.9996 21.2591 17.0125L21.0127 17.0964L20.9335 16.8286C21.0151 16.8043 21.0954 16.7752 21.1741 16.7415C21.2034 16.7318 21.2298 16.7447 21.2386 16.7737L21.2474 16.8092M20.6608 16.9963L20.649 16.9544C20.6402 16.9254 20.6549 16.8963 20.6813 16.8899C20.7546 16.877 20.8426 16.8576 20.9335 16.8286L21.0127 17.0964C20.9277 17.1222 20.8456 17.148 20.7664 17.1609C20.737 17.1641 20.6989 17.1222 20.6901 17.0964" fill="#F7C608"/>
<path d="M21.2236 16.9092L21.2324 16.9382C21.2382 16.9575 21.2265 16.9769 21.203 16.9898C21.1444 17.0092 21.0711 17.035 20.9977 17.0543L20.942 16.8672C21.0104 16.8456 21.0779 16.8208 21.1444 16.793C21.1678 16.7866 21.1884 16.7962 21.1972 16.8156L21.203 16.8414M20.7132 16.9963L20.7044 16.964C20.6986 16.9446 20.7132 16.9253 20.7338 16.9188C20.8038 16.9048 20.8733 16.8876 20.942 16.8672L21.0007 17.0576C20.9328 17.0784 20.8643 17.0967 20.7954 17.1124C20.769 17.1156 20.7426 17.0866 20.7367 17.0672" fill="#006233"/>
<path d="M20.3015 17.1377V17.1829C20.3015 17.2151 20.2809 17.2345 20.2516 17.2409C20.1783 17.2409 20.0844 17.2506 19.9935 17.2506V16.9732C20.0788 16.9724 20.1639 16.9671 20.2487 16.957C20.278 16.957 20.3015 16.9764 20.3015 17.0054V17.0441M19.6855 17.057V17.0119C19.6855 16.9828 19.7061 16.9603 19.7354 16.9603C19.8087 16.9667 19.8967 16.9732 19.9906 16.9732L19.9935 17.2506C19.9085 17.2536 19.8233 17.2525 19.7383 17.2474C19.709 17.2409 19.6855 17.1893 19.6855 17.1603" fill="#F7C608"/>
<path d="M20.2496 17.1303V17.1626C20.2496 17.1819 20.232 17.1949 20.2085 17.2045L19.9944 17.211V17.011C20.0707 17.011 20.1499 17.0045 20.2056 16.998C20.232 16.998 20.2496 17.0142 20.2496 17.0335V17.0593M19.7363 17.0723V17.04C19.7363 17.0174 19.7539 17.0013 19.7774 17.0013C19.839 17.0077 19.9123 17.011 19.9915 17.011L19.9944 17.211L19.7803 17.2078C19.7569 17.2013 19.7363 17.1658 19.7363 17.1432" fill="#006233"/>
<defs>
<filter id="filter0_dd_10092_254893" x="-6" y="0.125" width="52" height="43.75" filterUnits="userSpaceOnUse" color-interpolation-filters="sRGB">
<feFlood flood-opacity="0" result="BackgroundImageFix"/>
<feColorMatrix in="SourceAlpha" type="matrix" values="0 0 0 0 0 0 0 0 0 0 0 0 0 0 0 0 0 0 127 0" result="hardAlpha"/>
<feOffset dy="2"/>
<feGaussianBlur stdDeviation="2"/>
<feColorMatrix type="matrix" values="0 0 0 0 0.258824 0 0 0 0 0.309804 0 0 0 0 0.423529 0 0 0 0.14 0"/>
<feBlend mode="normal" in2="BackgroundImageFix" result="effect1_dropShadow_10092_254893"/>
<feColorMatrix in="SourceAlpha" type="matrix" values="0 0 0 0 0 0 0 0 0 0 0 0 0 0 0 0 0 0 127 0" result="hardAlpha"/>
<feMorphology radius="2" operator="erode" in="SourceAlpha" result="effect2_dropShadow_10092_254893"/>
<feOffset dy="8"/>
<feGaussianBlur stdDeviation="8"/>
<feColorMatrix type="matrix" values="0 0 0 0 0.258824 0 0 0 0 0.309804 0 0 0 0 0.423529 0 0 0 0.12 0"/>
<feBlend mode="normal" in2="effect1_dropShadow_10092_254893" result="effect2_dropShadow_10092_254893"/>
<feBlend mode="normal" in="SourceGraphic" in2="effect2_dropShadow_10092_254893" result="shape"/>
</filter>
</defs>
</svg>
