<svg width="24" height="24" viewBox="8 2 24 24" fill="none" xmlns="http://www.w3.org/2000/svg">
<g filter="url(#filter0_dd_fa)">
<!-- Green stripe (top) -->
<path d="M32 11.3791H8V6.55151C8 6.32299 8.1853 6.1377 8.41381 6.1377H31.5862C31.8147 6.1377 32 6.32299 32 6.55151V11.3791Z" fill="#239F40"/>
<!-- White stripe (middle) -->
<path d="M32 11.3789H8V16.62H32V11.3789Z" fill="#FFFFFF"/>
<!-- Red stripe (bottom) -->
<path d="M31.5861 21.8625H8.41381C8.1853 21.8625 8 21.6772 8 21.4486V16.6211H32V21.4486C32 21.6772 31.8147 21.8625 31.5861 21.8625Z" fill="#DA0000"/>
<!-- Lion and Sun emblem (simplified) -->
<g transform="translate(17.5, 11.2) scale(0.45)">
  <!-- Sun circle -->
  <circle cx="4" cy="4" r="3.2" fill="#FFD700" stroke="#C8A200" stroke-width="0.3"/>
  <!-- Sun rays -->
  <g stroke="#FFD700" stroke-width="0.7" stroke-linecap="round">
    <line x1="4" y1="-0.5" x2="4" y2="-2"/>
    <line x1="6.8" y1="0.8" x2="7.8" y2="-0.2"/>
    <line x1="8" y1="4" x2="9.5" y2="4"/>
    <line x1="6.8" y1="7.2" x2="7.8" y2="8.2"/>
    <line x1="4" y1="8.5" x2="4" y2="10"/>
    <line x1="1.2" y1="7.2" x2="0.2" y2="8.2"/>
    <line x1="0" y1="4" x2="-1.5" y2="4"/>
    <line x1="1.2" y1="0.8" x2="0.2" y2="-0.2"/>
  </g>
  <!-- Lion body (simplified) -->
  <path d="M0.5 5.5 C0.5 3 2 1.5 4 1.5 C6 1.5 7 3 7.5 5 C7.5 6 7 7 5.5 7.5 L2.5 7.5 C1.5 7 0.5 6.5 0.5 5.5Z" fill="#C8A200" opacity="0.6"/>
  <!-- Sword -->
  <line x1="4" y1="0" x2="4" y2="9" stroke="#C8A200" stroke-width="0.5"/>
</g>
</g>
<defs>
<filter id="filter0_dd_fa" x="-6" y="-4" width="52" height="52" filterUnits="userSpaceOnUse" color-interpolation-filters="sRGB">
<feFlood flood-opacity="0" result="BackgroundImageFix"/>
<feColorMatrix in="SourceAlpha" type="matrix" values="0 0 0 0 0 0 0 0 0 0 0 0 0 0 0 0 0 0 127 0" result="hardAlpha"/>
<feOffset dy="2"/>
<feGaussianBlur stdDeviation="2"/>
<feColorMatrix type="matrix" values="0 0 0 0 0.258824 0 0 0 0 0.309804 0 0 0 0 0.423529 0 0 0 0.14 0"/>
<feBlend mode="normal" in2="BackgroundImageFix" result="effect1_dropShadow"/>
<feColorMatrix in="SourceAlpha" type="matrix" values="0 0 0 0 0 0 0 0 0 0 0 0 0 0 0 0 0 0 127 0" result="hardAlpha"/>
<feMorphology radius="2" operator="erode" in="SourceAlpha" result="effect2_dropShadow"/>
<feOffset dy="8"/>
<feGaussianBlur stdDeviation="8"/>
<feColorMatrix type="matrix" values="0 0 0 0 0.258824 0 0 0 0 0.309804 0 0 0 0 0.423529 0 0 0 0.12 0"/>
<feBlend mode="normal" in2="effect1_dropShadow" result="effect2_dropShadow"/>
<feBlend mode="normal" in="SourceGraphic" in2="effect2_dropShadow" result="shape"/>
</filter>
</defs>
</svg>
