<svg width="29" height="28" viewBox="0 0 29 28" fill="none" xmlns="http://www.w3.org/2000/svg">
<title>HighContrastIcon</title>
<path d="M28.208 14H24.208" stroke="currentColor" stroke-width="1.33333" stroke-miterlimit="10" stroke-linecap="round" stroke-linejoin="round"/>
<path d="M5.54199 14H1.54199" stroke="currentColor" stroke-width="1.33333" stroke-miterlimit="10" stroke-linecap="round" stroke-linejoin="round"/>
<path d="M14.875 27.3333V23.3333" stroke="currentColor" stroke-width="1.33333" stroke-miterlimit="10" stroke-linecap="round" stroke-linejoin="round"/>
<path d="M14.875 4.66675V0.666748" stroke="currentColor" stroke-width="1.33333" stroke-miterlimit="10" stroke-linecap="round" stroke-linejoin="round"/>
<path d="M24.3023 23.427L21.4756 20.6003" stroke="currentColor" stroke-width="1.33333" stroke-miterlimit="10" stroke-linecap="round" stroke-linejoin="round"/>
<path d="M8.27491 7.40015L5.44824 4.57349" stroke="currentColor" stroke-width="1.33333" stroke-miterlimit="10" stroke-linecap="round" stroke-linejoin="round"/>
<path d="M8.27491 20.6003L5.44824 23.427" stroke="currentColor" stroke-width="1.33333" stroke-miterlimit="10" stroke-linecap="round" stroke-linejoin="round"/>
<path d="M24.3023 4.57349L21.4756 7.40015" stroke="currentColor" stroke-width="1.33333" stroke-miterlimit="10" stroke-linecap="round" stroke-linejoin="round"/>
<path d="M14.8753 19.3334C17.8208 19.3334 20.2087 16.9455 20.2087 14.0001C20.2087 11.0546 17.8208 8.66675 14.8753 8.66675C11.9298 8.66675 9.54199 11.0546 9.54199 14.0001C9.54199 16.9455 11.9298 19.3334 14.8753 19.3334Z" stroke="currentColor" stroke-width="1.33333" stroke-miterlimit="10" stroke-linecap="round" stroke-linejoin="round"/>
<path d="M14.875 9C15.5754 9 16.2689 9.13795 16.916 9.40598C17.5631 9.674 18.151 10.0669 18.6462 10.5621C19.1415 11.0573 19.5343 11.6453 19.8024 12.2924C20.0704 12.9394 20.2083 13.633 20.2083 14.3333C20.2083 15.0337 20.0704 15.7272 19.8024 16.3743C19.5343 17.0214 19.1415 17.6093 18.6462 18.1046C18.151 18.5998 17.563 18.9927 16.916 19.2607C16.2689 19.5287 15.5754 19.6667 14.875 19.6667L14.875 9Z" fill="currentColor"/>
<path d="M14.875 9C15.5754 9 16.2689 9.13795 16.916 9.40598C17.5631 9.674 18.151 10.0669 18.6462 10.5621C19.1415 11.0573 19.5343 11.6453 19.8024 12.2924C20.0704 12.9394 20.2083 13.633 20.2083 14.3333C20.2083 15.0337 20.0704 15.7272 19.8024 16.3743C19.5343 17.0214 19.1415 17.6093 18.6462 18.1046C18.151 18.5998 17.563 18.9927 16.916 19.2607C16.2689 19.5287 15.5754 19.6667 14.875 19.6667L14.875 9Z" fill="currentColor"/>
</svg>
