<svg width="201" height="122" viewBox="0 0 201 122" fill="none" xmlns="http://www.w3.org/2000/svg">
<text x="100" y="105" text-anchor="middle" font-family="system-ui, -apple-system, 'Segoe UI', sans-serif" font-size="42" font-weight="300" letter-spacing="-1">
<tspan fill="#5D8FE1">Wiz</tspan><tspan fill="#5BBBA9">Col</tspan>
</text>
<path d="M74.1252 34.9582C74.1134 34.9596 74.1015 34.9596 74.0896 34.9582C73.8958 34.9208 73.6991 34.8993 73.5018 34.8939C73.458 34.8939 73.4143 34.8939 73.365 34.8939C72.3298 34.8939 71.337 35.3052 70.605 36.0372C69.873 36.7692 69.4617 37.762 69.4617 38.7973V38.8068C69.4659 39.5712 69.6945 40.3175 70.1191 40.9531C70.5437 41.5887 71.1457 42.0856 71.8502 42.382C70.3181 41.9025 68.9748 40.9551 68.0089 39.6728C67.0429 38.3906 66.503 36.8379 66.4648 35.233C66.4648 35.1756 66.4648 35.1168 66.4648 35.0566C66.4648 34.0414 66.8682 33.0677 67.5861 32.3497C68.304 31.6318 69.2777 31.2285 70.293 31.2285C70.323 31.2285 70.3559 31.2285 70.3859 31.2285C71.3689 31.251 72.3056 31.6509 73.0017 32.3453C73.6979 33.0397 74.1002 33.9753 74.1252 34.9582Z" fill="#F0807D"/>
<path d="M81.7483 36.075C81.5013 37.9179 80.594 39.6086 79.1947 40.8331C77.7954 42.0577 75.9993 42.7328 74.1399 42.7332C73.8747 42.7332 73.6136 42.7195 73.3552 42.6949C72.8478 42.6416 72.3469 42.539 71.8595 42.3887C71.1542 42.0906 70.5523 41.5917 70.1285 40.9541C69.7048 40.3164 69.478 39.5682 69.4765 38.8025V38.793C69.4765 37.7577 69.8877 36.7649 70.6197 36.0329C71.3517 35.3009 72.3446 34.8896 73.3798 34.8896C73.4235 34.8896 73.4673 34.8896 73.5165 34.8896C73.7139 34.8945 73.9106 34.916 74.1044 34.9539C74.1153 34.9539 74.1276 34.9539 74.1399 34.9539C74.1713 34.9518 74.2029 34.9518 74.2343 34.9539C74.2343 34.9785 74.2343 35.0264 74.2343 35.051C74.2229 35.9853 74.5537 36.8915 75.1643 37.5988C75.7749 38.3061 76.623 38.7657 77.549 38.8909C78.475 39.0162 79.4147 38.7984 80.1913 38.2787C80.9678 37.759 81.5274 36.9733 81.7647 36.0695L81.7483 36.075Z" fill="#F0807D"/>
<path d="M81.8153 35.0566C81.8152 35.3973 81.7928 35.7375 81.7483 36.0752C81.511 36.979 80.9514 37.7647 80.1748 38.2844C79.3983 38.8041 78.4585 39.0219 77.5326 38.8966C76.6066 38.7714 75.7584 38.3118 75.1479 37.6045C74.5373 36.8972 74.2065 35.991 74.2178 35.0566C74.2178 35.032 74.2178 35.0088 74.2178 34.9828V34.9596C75.2172 34.9599 76.1771 34.5693 76.8924 33.8714C77.6077 33.1735 78.0217 32.2235 78.046 31.2244C78.048 31.1916 78.048 31.1588 78.046 31.126C78.0463 30.3204 77.7925 29.5353 77.3207 28.8823C76.8489 28.2293 76.1832 27.7419 75.4182 27.4893C77.0346 27.7628 78.521 28.5465 79.66 29.7256C80.799 30.9047 81.5308 32.4173 81.7483 34.0422C81.7927 34.3785 81.8151 34.7174 81.8153 35.0566Z" fill="#F0807D"/>
<path d="M78.0521 31.1256C78.0541 31.1583 78.0541 31.1912 78.0521 31.224C78.0278 32.2231 77.6138 33.1731 76.8985 33.871C76.1832 34.5689 75.2233 34.9595 74.2239 34.9592H74.1296C74.1053 33.9755 73.7031 33.039 73.0066 32.344C72.31 31.649 71.3727 31.2489 70.389 31.2267C70.3589 31.2267 70.3261 31.2267 70.296 31.2267C69.2807 31.2267 68.307 31.6301 67.5891 32.348C66.8712 33.0659 66.4679 34.0396 66.4679 35.0549C66.4683 33.9381 66.7122 32.8349 67.1828 31.8222C67.6534 30.8094 68.3392 29.9115 69.1924 29.1911C70.0456 28.4706 71.0458 27.9449 72.123 27.6507C73.2003 27.3565 74.3288 27.3008 75.4298 27.4875C76.1939 27.7411 76.8587 28.2292 77.3294 28.8823C77.8002 29.5355 78.0531 30.3204 78.0521 31.1256Z" fill="#F0807D"/>
<path d="M98.5049 26.4199C96.6783 27.3264 95.0117 28.2738 93.9371 29.1543C90.2359 29.4084 86.5539 29.8905 82.9121 30.598C82.587 30.651 82.254 30.5753 81.9838 30.387C81.7135 30.1987 81.5272 29.9126 81.4643 29.5893C81.4013 29.2659 81.4668 28.9308 81.6467 28.6549C81.8266 28.379 82.1069 28.184 82.4281 28.1111C87.7277 27.0811 93.107 26.5152 98.5049 26.4199Z" fill="#81A0D3"/>
<path d="M120.414 29.9405C120.354 30.2229 120.2 30.4763 119.976 30.6584C119.752 30.8405 119.472 30.9404 119.184 30.9413C119.094 30.9418 119.006 30.9326 118.918 30.914C112.754 29.6018 106.47 28.9392 100.167 28.937H100.132C98.0674 28.937 96.0034 29.0081 93.9398 29.1503C95.0145 28.2739 96.6742 27.3265 98.5076 26.4159C99.049 26.4068 99.5904 26.4018 100.132 26.4009H100.169C106.648 26.4025 113.109 27.0839 119.446 28.4339C119.609 28.4691 119.763 28.536 119.899 28.6308C120.036 28.7256 120.153 28.8464 120.243 28.9864C120.333 29.1263 120.394 29.2826 120.423 29.4464C120.453 29.6101 120.45 29.778 120.414 29.9405Z" fill="#81A0D3"/>
<path d="M117.406 35.9739H84.5213C84.1855 35.9739 83.8635 35.8405 83.6261 35.6031C83.3886 35.3657 83.2553 35.0437 83.2553 34.7079C83.2553 34.3721 83.3886 34.0501 83.6261 33.8127C83.8635 33.5753 84.1855 33.4419 84.5213 33.4419H117.406C117.742 33.4419 118.064 33.5753 118.301 33.8127C118.539 34.0501 118.672 34.3721 118.672 34.7079C118.672 35.0437 118.539 35.3657 118.301 35.6031C118.064 35.8405 117.742 35.9739 117.406 35.9739Z" fill="#FAC372"/>
<path d="M92.4937 20.0557C89.7922 20.917 87.7892 22.4414 87.3777 23.8578C84.7498 24.6558 82.2025 25.6985 79.7693 26.9723C79.472 27.1285 79.1247 27.1603 78.804 27.0606C78.4832 26.9608 78.2152 26.7378 78.059 26.4404C77.9027 26.1431 77.8709 25.7959 77.9707 25.4751C78.0704 25.1544 78.2935 24.8864 78.5908 24.7301C82.9511 22.4519 87.6428 20.8745 92.4937 20.0557Z" fill="#5BBBA9"/>
<path d="M123.381 26.8495C123.301 26.9957 123.194 27.1247 123.064 27.2291C122.935 27.3335 122.786 27.4113 122.626 27.4579C122.466 27.5046 122.299 27.5191 122.133 27.5008C121.968 27.4825 121.808 27.4317 121.662 27.3513C118.498 25.621 115.133 24.2867 111.642 23.3782C112.339 23.2931 113.028 23.156 113.704 22.9681C114.517 22.7469 115.309 22.4507 116.068 22.0835C118.415 22.914 120.692 23.9331 122.875 25.131C123.17 25.2919 123.389 25.5633 123.484 25.8855C123.578 26.2078 123.541 26.5545 123.381 26.8495Z" fill="#5BBBA9"/>
<path d="M116.067 22.0876C115.308 22.4534 114.517 22.7481 113.704 22.968C113.028 23.156 112.338 23.2931 111.642 23.3782C110.022 22.9534 108.378 22.6215 106.72 22.3842C104.658 22.0886 102.578 21.9383 100.495 21.9344C100.137 21.9344 99.7756 21.9376 99.411 21.944C95.3318 22.0268 91.2833 22.6709 87.3798 23.8581C87.7899 22.4417 89.7942 20.9173 92.4958 20.0559C94.1828 19.77 95.8844 19.5774 97.5927 19.479C98.1742 19.4434 98.7639 19.4197 99.3618 19.4079C105.047 19.2855 110.707 20.1934 116.069 22.0876H116.067Z" fill="#5BBBA9"/>
<path d="M98.5049 43.3387C96.6783 42.4322 95.0117 41.4861 93.9371 40.6043C90.236 40.3495 86.554 39.8674 82.9121 39.1605C82.587 39.1076 82.254 39.1833 81.9838 39.3716C81.7135 39.5599 81.5272 39.846 81.4643 40.1693C81.4013 40.4927 81.4668 40.8278 81.6467 41.1037C81.8266 41.3796 82.1069 41.5746 82.4281 41.6475C87.7277 42.6775 93.107 43.2434 98.5049 43.3387Z" fill="#8F86C8"/>
<path d="M120.414 39.8128C120.354 39.5304 120.2 39.277 119.976 39.0949C119.752 38.9128 119.472 38.813 119.184 38.812C119.095 38.8118 119.006 38.8205 118.918 38.838C112.754 40.1515 106.47 40.8141 100.167 40.8149H100.132C98.0674 40.8149 96.0034 40.7443 93.9398 40.603C95.0145 41.4794 96.6742 42.4255 98.5076 43.3374C99.049 43.3483 99.5904 43.3534 100.132 43.3524H100.169C106.648 43.3513 113.109 42.6703 119.446 41.3208C119.609 41.2856 119.763 41.2187 119.9 41.1238C120.037 41.0289 120.153 40.9079 120.243 40.7678C120.333 40.6277 120.395 40.4712 120.424 40.3073C120.453 40.1435 120.45 39.9754 120.414 39.8128Z" fill="#8F86C8"/>
<path d="M92.4936 49.6974C89.792 48.8361 87.7891 47.3117 87.3776 45.8953C84.7497 45.0972 82.2024 44.0545 79.7692 42.7808C79.4725 42.6295 79.1282 42.6012 78.8108 42.702C78.4934 42.8028 78.2285 43.0246 78.0735 43.3193C77.9185 43.614 77.8858 43.958 77.9826 44.2766C78.0794 44.5953 78.2979 44.8629 78.5907 45.0216C82.9508 47.3003 87.6426 48.8782 92.4936 49.6974Z" fill="#F0807D"/>
<path d="M123.381 42.9041C123.272 42.7045 123.111 42.5379 122.916 42.4219C122.72 42.306 122.497 42.2449 122.269 42.2451C122.057 42.245 121.848 42.2991 121.662 42.4023C118.498 44.134 115.133 45.4697 111.642 46.3795C112.339 46.4613 113.028 46.5956 113.704 46.7814C114.517 47.0027 115.309 47.2988 116.068 47.666C118.415 46.8363 120.691 45.8185 122.875 44.6227C123.17 44.4617 123.389 44.1903 123.484 43.8681C123.578 43.5458 123.541 43.1991 123.381 42.9041Z" fill="#F0807D"/>
<path d="M116.067 47.6663C115.309 47.2991 114.517 47.0029 113.704 46.7817C113.027 46.5959 112.338 46.4615 111.642 46.3798C110.021 46.8035 108.378 47.1348 106.72 47.3724C104.658 47.6678 102.578 47.8186 100.495 47.8235C100.137 47.8235 99.7756 47.8203 99.411 47.814C95.3319 47.7298 91.2836 47.0858 87.3798 45.8999C87.7899 47.3163 89.7942 48.8407 92.4958 49.7021C94.1828 49.988 95.8844 50.1806 97.5927 50.279C98.1742 50.3146 98.7639 50.3383 99.3618 50.3501C101.835 50.4025 104.309 50.2608 106.761 49.9263C109.932 49.493 113.051 48.7357 116.067 47.6663Z" fill="#F0807D"/>
<path d="M131.773 38.7684C131.138 38.7685 130.513 38.6107 129.954 38.3093C129.396 38.0079 128.921 37.5722 128.572 37.0416L125.728 39.3275V36.1352H120.277C120.501 37.5483 121.115 38.8709 122.05 39.9538C122.985 41.0367 124.204 41.8369 125.57 42.2643C126.057 42.4147 126.558 42.5173 127.065 42.5705C127.324 42.5951 127.586 42.6088 127.85 42.6088C129.711 42.6112 131.509 41.9381 132.911 40.7145C134.312 39.4909 135.222 37.8 135.471 35.9561C135.247 36.7647 134.764 37.4775 134.096 37.9854C133.428 38.4934 132.612 38.7684 131.773 38.7684Z" fill="#5BBBA9"/>
<path d="M135.538 34.9349C135.538 35.275 135.516 35.6148 135.471 35.9521C135.278 36.6645 134.883 37.3059 134.334 37.7991C133.785 38.2922 133.105 38.6161 132.376 38.7317C131.647 38.8473 130.9 38.7496 130.225 38.4505C129.55 38.1514 128.976 37.6636 128.572 37.0458L131.416 34.7571L130.403 33.9368C130.82 33.5886 131.157 33.1556 131.393 32.6666C131.628 32.1776 131.757 31.644 131.77 31.1013C131.77 31.0671 131.77 31.0343 131.77 31.0015C131.771 30.1961 131.517 29.411 131.046 28.7581C130.574 28.1052 129.909 27.6176 129.144 27.3647C130.759 27.6392 132.244 28.4229 133.382 29.6014C134.52 30.7799 135.251 32.2913 135.468 33.9149C135.514 34.253 135.537 34.5937 135.538 34.9349Z" fill="#5BBBA9"/>
<path d="M129.146 27.3661C127.187 27.0336 125.175 27.4736 123.533 28.5936C121.891 29.7136 120.748 31.4265 120.343 33.3722H125.728V30.1784L128.572 32.4657L130.402 33.9382C130.819 33.59 131.156 33.1569 131.392 32.668C131.628 32.179 131.757 31.6453 131.77 31.1026C131.77 31.0685 131.77 31.0356 131.77 31.0028C131.77 30.1978 131.517 29.413 131.046 28.7601C130.575 28.1072 129.91 27.6194 129.146 27.3661Z" fill="#5BBBA9"/>
</svg>
