<svg width="24" height="24" viewBox="0 0 24 24" fill="none" xmlns="http://www.w3.org/2000/svg">
<g clip-path="url(#clip0_9966_75886)">
<path d="M9.12269 5.43728C9.12269 5.43728 9.09273 4.89903 9.12269 4.55628C9.19282 3.75415 9.32794 3.16675 9.71716 2.58201C10.1064 1.99728 10.6604 1.54124 11.3091 1.27167C11.9577 1.0021 12.6718 0.931136 13.3608 1.06777C14.0498 1.2044 14.6827 1.54248 15.1794 2.03918C15.6761 2.53587 16.0142 3.16882 16.1508 3.85783C16.2875 4.54684 16.2165 5.26091 15.9469 5.90955C15.6774 6.55819 15.2213 7.11223 14.6366 7.50145C14.0519 7.89067 13.3648 8.09756 12.6623 8.09591C12.4973 8.09807 12.3397 8.16457 12.223 8.28125C12.1063 8.39793 12.0398 8.55556 12.0377 8.72055C12.0377 8.72055 12.0377 9.58878 12.0377 9.9404" stroke="currentColor" stroke-linecap="round"/>
<path d="M12.6524 11.959C12.6524 12.2579 12.4102 12.5001 12.1114 12.5001C11.8126 12.5001 11.5703 12.2579 11.5703 11.959C11.5703 11.6602 11.8126 11.418 12.1114 11.418C12.4102 11.418 12.6524 11.6602 12.6524 11.959Z" fill="currentColor" stroke="currentColor"/>
<path d="M23.5566 22.4786C21.7217 22.8984 20.1123 22.9995 18.8916 22.9995C17.0022 22.9995 15.4084 22.7507 14.2266 22.4786C14.2266 20.1927 16.318 18.3345 18.8916 18.3345C21.4651 18.3345 23.5566 20.1927 23.5566 22.4786Z" stroke="currentColor" stroke-width="1.10001" stroke-miterlimit="10" stroke-linecap="round" stroke-linejoin="round"/>
<path d="M18.8911 16.665C20.1793 16.665 21.2236 15.6207 21.2236 14.3325C21.2236 13.0443 20.1793 12 18.8911 12C17.6029 12 16.5586 13.0443 16.5586 14.3325C16.5586 15.6207 17.6029 16.665 18.8911 16.665Z" stroke="currentColor" stroke-width="1.10001" stroke-miterlimit="10" stroke-linecap="round" stroke-linejoin="round"/>
<path d="M9.55644 22.4795C7.72157 22.8993 6.11216 23.0004 4.8915 23.0004C3.0022 23.0004 1.40835 22.7516 0.226562 22.4795C0.226562 20.1937 2.31801 18.3354 4.8915 18.3354C7.46499 18.3354 9.55644 20.1937 9.55644 22.4795Z" stroke="currentColor" stroke-width="1.1" stroke-miterlimit="10" stroke-linecap="round" stroke-linejoin="round"/>
<path d="M4.89106 16.6649C6.17925 16.6649 7.22353 15.6207 7.22353 14.3325C7.22353 13.0443 6.17925 12 4.89106 12C3.60288 12 2.55859 13.0443 2.55859 14.3325C2.55859 15.6207 3.60288 16.6649 4.89106 16.6649Z" stroke="currentColor" stroke-width="1.1" stroke-miterlimit="10" stroke-linecap="round" stroke-linejoin="round"/>
</g>
<defs>
<clipPath id="clip0_9966_75886">
<rect width="24" height="24" fill="currentColor"/>
</clipPath>
</defs>
</svg>
