<svg width="25" height="25" viewBox="0 0 25 25" fill="none" xmlns="http://www.w3.org/2000/svg">
<path d="M16.4504 14.5873C15.555 16.136 14.07 17.0248 12.376 17.0248C10.6819 17.0248 9.19692 16.136 8.30161 14.5873C8.25677 14.5016 8.24679 14.4019 8.27374 14.309C8.30069 14.2161 8.36248 14.1372 8.44622 14.0888C8.52996 14.0404 8.62916 14.0262 8.7231 14.0492C8.81705 14.0722 8.89847 14.1307 8.95036 14.2123C9.72004 15.5426 10.9369 16.2748 12.376 16.2748C13.815 16.2748 15.0319 15.5426 15.8016 14.2123C15.825 14.1675 15.8573 14.1279 15.8965 14.0958C15.9356 14.0638 15.9808 14.04 16.0294 14.026C16.078 14.0119 16.1289 14.0077 16.1791 14.0138C16.2293 14.0199 16.2778 14.0361 16.3216 14.0614C16.3653 14.0867 16.4036 14.1207 16.4339 14.1611C16.4642 14.2016 16.4861 14.2478 16.4981 14.2969C16.5102 14.346 16.5121 14.3971 16.5039 14.447C16.4957 14.4969 16.4775 14.5446 16.4504 14.5873ZM21.751 12.1498C21.751 14.004 21.2011 15.8165 20.171 17.3583C19.1409 18.9 17.6767 20.1016 15.9636 20.8112C14.2506 21.5207 12.3656 21.7064 10.547 21.3446C8.72844 20.9829 7.05797 20.09 5.74685 18.7789C4.43574 17.4678 3.54286 15.7973 3.18112 13.9788C2.81938 12.1602 3.00504 10.2752 3.71461 8.56212C4.42418 6.84907 5.6258 5.38489 7.16751 4.35475C8.70922 3.32461 10.5218 2.77478 12.376 2.77478C14.8615 2.77751 17.2445 3.76611 19.0021 5.52367C20.7597 7.28123 21.7483 9.66421 21.751 12.1498ZM21.001 12.1498C21.001 10.4439 20.4951 8.77636 19.5474 7.35799C18.5997 5.93961 17.2526 4.83413 15.6766 4.18132C14.1006 3.52851 12.3664 3.35771 10.6933 3.69051C9.02024 4.0233 7.48341 4.84476 6.27718 6.05098C5.07096 7.25721 4.24951 8.79404 3.91671 10.4671C3.58391 12.1402 3.75471 13.8744 4.40752 15.4504C5.06033 17.0264 6.16581 18.3735 7.58419 19.3212C9.00256 20.2689 10.6701 20.7748 12.376 20.7748C14.6627 20.7723 16.8551 19.8628 18.472 18.2458C20.089 16.6289 20.9985 14.4365 21.001 12.1498ZM9.00098 11.0248C9.14932 11.0248 9.29432 10.9808 9.41766 10.8984C9.541 10.816 9.63713 10.6988 9.69389 10.5618C9.75066 10.4247 9.76551 10.2739 9.73657 10.1285C9.70763 9.98298 9.6362 9.84934 9.53131 9.74445C9.42642 9.63956 9.29278 9.56813 9.1473 9.53919C9.00181 9.51025 8.85101 9.5251 8.71397 9.58187C8.57692 9.63864 8.45979 9.73477 8.37738 9.8581C8.29497 9.98144 8.25098 10.1264 8.25098 10.2748C8.25098 10.4737 8.33 10.6645 8.47065 10.8051C8.6113 10.9458 8.80207 11.0248 9.00098 11.0248ZM15.751 9.52478C15.6026 9.52478 15.4576 9.56877 15.3343 9.65118C15.211 9.73359 15.1148 9.85072 15.0581 9.98777C15.0013 10.1248 14.9865 10.2756 15.0154 10.4211C15.0443 10.5666 15.1158 10.7002 15.2207 10.8051C15.3255 10.91 15.4592 10.9814 15.6047 11.0104C15.7501 11.0393 15.9009 11.0245 16.038 10.9677C16.175 10.9109 16.2922 10.8148 16.3746 10.6915C16.457 10.5681 16.501 10.4231 16.501 10.2748C16.501 10.0759 16.422 9.8851 16.2813 9.74445C16.1407 9.6038 15.9499 9.52478 15.751 9.52478Z" fill="currentColor" stroke="currentColor" stroke-width="0.3"/>
</svg>
