<svg width="22" height="22" viewBox="0 0 22 22" fill="none" xmlns="http://www.w3.org/2000/svg">
<path d="M15.8734 13.9118C14.8036 15.7624 13.0275 16.8235 11 16.8235C8.97255 16.8235 7.19638 15.7624 6.12657 13.9118C6.04921 13.7639 6.03199 13.5918 6.07849 13.4316C6.12498 13.2713 6.23162 13.1352 6.3761 13.0516C6.52059 12.9681 6.69176 12.9436 6.85386 12.9834C7.01596 13.0231 7.15645 13.1239 7.24598 13.2647C8.09147 14.7249 9.42441 15.5294 11 15.5294C12.5756 15.5294 13.9118 14.7249 14.754 13.2647C14.7945 13.1874 14.8501 13.119 14.9177 13.0638C14.9852 13.0085 15.0633 12.9675 15.1471 12.9432C15.2309 12.9189 15.3188 12.9118 15.4054 12.9223C15.492 12.9328 15.5756 12.9608 15.6512 13.0044C15.7267 13.0481 15.7927 13.1066 15.845 13.1764C15.8974 13.2462 15.9351 13.3259 15.9558 13.4107C15.9766 13.4955 15.98 13.5835 15.9658 13.6696C15.9517 13.7558 15.9203 13.8381 15.8734 13.9118ZM22 11C22 13.1756 21.3549 15.3023 20.1462 17.1113C18.9375 18.9202 17.2195 20.3301 15.2095 21.1627C13.1995 21.9952 10.9878 22.2131 8.85401 21.7886C6.72022 21.3642 4.76021 20.3165 3.22183 18.7782C1.68345 17.2398 0.635804 15.2798 0.211367 13.146C-0.21307 11.0122 0.00476594 8.80047 0.83733 6.79048C1.66989 4.78049 3.07979 3.06253 4.88873 1.85383C6.69767 0.645138 8.82441 0 11 0C13.9163 0.00342494 16.7122 1.16345 18.7744 3.22561C20.8365 5.28777 21.9966 8.08367 22 11ZM20.7059 11C20.7059 9.08036 20.1366 7.20382 19.0701 5.6077C18.0037 4.01158 16.4878 2.76755 14.7143 2.03293C12.9408 1.29832 10.9892 1.10611 9.10648 1.48061C7.22372 1.85512 5.4943 2.77951 4.13691 4.1369C2.77952 5.4943 1.85512 7.22372 1.48062 9.10647C1.10611 10.9892 1.29832 12.9408 2.03294 14.7143C2.76755 16.4878 4.01158 18.0036 5.6077 19.0701C7.20383 20.1366 9.08036 20.7059 11 20.7059C13.5733 20.703 16.0404 19.6795 17.8599 17.8599C19.6795 16.0404 20.703 13.5733 20.7059 11ZM7.11765 9.92157C7.33094 9.92157 7.53945 9.85832 7.71679 9.73982C7.89414 9.62132 8.03237 9.45289 8.11399 9.25583C8.19561 9.05878 8.21697 8.84194 8.17536 8.63274C8.13375 8.42355 8.03104 8.23139 7.88022 8.08057C7.7294 7.92975 7.53724 7.82704 7.32804 7.78543C7.11885 7.74381 6.90201 7.76517 6.70495 7.8468C6.50789 7.92842 6.33947 8.06664 6.22097 8.24399C6.10247 8.42134 6.03922 8.62984 6.03922 8.84314C6.03922 9.12915 6.15284 9.40346 6.35508 9.6057C6.55733 9.80795 6.83163 9.92157 7.11765 9.92157ZM14.8824 7.7647C14.6691 7.7647 14.4606 7.82795 14.2832 7.94645C14.1059 8.06495 13.9676 8.23338 13.886 8.43044C13.8044 8.62749 13.783 8.84433 13.8246 9.05353C13.8663 9.26272 13.969 9.45488 14.1198 9.6057C14.2706 9.75652 14.4628 9.85923 14.672 9.90084C14.8812 9.94246 15.098 9.9211 15.2951 9.83948C15.4921 9.75785 15.6605 9.61963 15.779 9.44228C15.8975 9.26493 15.9608 9.05643 15.9608 8.84314C15.9608 8.55712 15.8472 8.28281 15.6449 8.08057C15.4427 7.87832 15.1684 7.7647 14.8824 7.7647Z" fill="currentColor"/>
</svg>
