<svg width="24" height="25" viewBox="0 0 24 25" fill="none" xmlns="http://www.w3.org/2000/svg">
	<path d="M22 12.5C22 18.0228 17.5228 22.5 12 22.5C6.47715 22.5 2 18.0228 2 12.5C2 6.97715 6.47715 2.5 12 2.5"
		stroke="currentColor" stroke-linecap="round" stroke-linejoin="round" />
	<path d="M12 6.5C8.68629 6.5 6 9.18629 6 12.5C6 15.8137 8.68629 18.5 12 18.5C15.3137 18.5 18 15.8137 18 12.5"
		stroke="currentColor" stroke-linecap="round" stroke-linejoin="round" />
	<path
		d="M12 13.5C12.5523 13.5 13 13.0523 13 12.5C13 11.9477 12.5523 11.5 12 11.5C11.4477 11.5 11 11.9477 11 12.5C11 13.0523 11.4477 13.5 12 13.5Z"
		stroke="currentColor" stroke-linecap="round" stroke-linejoin="round" />
	<path d="M20 4.5L12 12.5" stroke="currentColor" stroke-linecap="round" stroke-linejoin="round" />
	<path d="M21.25 6.5H18V3.25L15.5 5.75V9H18.75L21.25 6.5Z" stroke="currentColor" stroke-linecap="round"
		stroke-linejoin="round" />
</svg>