<svg viewBox="0 0 24 24" fill="none" xmlns="http://www.w3.org/2000/svg">
  <path d="M7 22V11M3 13V20C3 20.5304 3.21071 21.0391 3.58579 21.4142C3.96086 21.7893 4.46957 22 5 22H16.4262C16.8812 22 17.3197 21.8344 17.6586 21.5337C17.9976 21.233 18.2137 20.8177 18.2669 20.3662L19.6669 8.36619C19.6946 8.13778 19.6739 7.90615 19.606 7.68613C19.5381 7.46612 19.4243 7.26252 19.2713 7.08845C19.1183 6.91438 18.9294 6.77355 18.7165 6.67495C18.5036 6.57635 18.2711 6.52229 18.0349 6.51619H12V3C12 2.46957 11.7893 1.96086 11.4142 1.58579C11.0391 1.21071 10.5304 1 10 1C9.73478 1 9.48043 1.10536 9.29289 1.29289C9.10536 1.48043 9 1.73478 9 2V6.51619" stroke="currentColor" strokeWidth="2" strokeLinecap="round" strokeLinejoin="round"/>
</svg>