<svg viewBox="0 0 24 24" fill="currentColor" xmlns="http://www.w3.org/2000/svg">
  <path d="M7 22V11H3V20C3 20.5304 3.21071 21.0391 3.58579 21.4142C3.96086 21.7893 4.46957 22 5 22H7Z" fill="currentColor"/>
  <path d="M19.6669 8.36619L18.2669 20.3662C18.2137 20.8177 17.9976 21.233 17.6586 21.5337C17.3197 21.8344 16.8812 22 16.4262 22H9V11.4238V6.51619V2C9 1.73478 9.10536 1.48043 9.29289 1.29289C9.48043 1.10536 9.73478 1 10 1C10.5304 1 11.0391 1.21071 11.4142 1.58579C11.7893 1.96086 12 2.46957 12 3V6.51619H18.0349C18.2711 6.52229 18.5036 6.57635 18.7165 6.67495C18.9294 6.77355 19.1183 6.91438 19.2713 7.08845C19.4243 7.26252 19.5381 7.46612 19.606 7.68613C19.6739 7.90615 19.6946 8.13778 19.6669 8.36619Z" fill="currentColor"/>
</svg>