<?xml version="1.0" encoding="utf-8"?>
<!-- Generator: Adobe Illustrator 24.2.3, SVG Export Plug-In . SVG Version: 6.00 Build 0)  -->
<svg version="1.1" xmlns="http://www.w3.org/2000/svg" xmlns:xlink="http://www.w3.org/1999/xlink" x="0px" y="0px"
	 viewBox="0 0 882.4 450.7" style="enable-background:new 0 0 882.4 450.7;" xml:space="preserve">
<style type="text/css">
	.st0{fill:#552D73;}
	.st1{fill:#EE504D;}
	.st2{fill:#59AF6E;}
</style>
<g id="Layer_1">
</g>
<g id="Layer_2">
	<g>
		<path class="st0" d="M725.2,313.7c-33.8-4.7-61.7,13-69.8,43.8s0.7,60.2,35,68.3c29.4,6.9,63.9-12.5,72-43.3
			C770.5,351.7,760.5,318.6,725.2,313.7z M733.1,376c-4.9,18.9-19.6,31.4-32.7,28c-13.1-3.4-19.7-21.5-14.8-40.4s19.6-31.4,32.7-28
			S738.1,357.1,733.1,376z"/>
		<path class="st0" d="M730.3,339.4c0,0-11,0.2-11,16.4s12.7,17.9,19.1,18.9c6.4,1,24.2,2,24.2,2s13,0.2,26.9-10.5
			c0,0-5.4,19.6-5.4,31.6s2.7,27.2,25,28.7c22.3,1.5,29.1-12.7,26.7-26.9c0,0-5.9,3.9-12.5,3.9s-8.6-2.7-6.6-15.7
			s21.8-113.1,21.6-119.3c-0.2-6.1-2-7.6-11.8-7.6c-9.8,0-16.7-0.7-18.4,5.9S795.7,333,795.7,333s-10.5,17.9-33.3,22.3
			C739.6,359.7,730.3,339.4,730.3,339.4z"/>
		<path class="st0" d="M633.6,382.3c0,0-24.5,20.1-57.1,20.1c-32.6,0-51.9-15.2-51.9-45.3s12.5-53.9,36.5-64.9
			c0,0,13.2-3.9,20.8-3.9c7.6,0,26.4,1.5,27.2,15.7s-11,14.7-11,21.1s2.2,14.7,18.9,14.7s25-16.7,25-35c0-18.4-20.8-39.9-63.4-39.9
			s-90.9,36.7-87.7,94c3.2,57.3,53.1,72,87.4,69.1c34.3-2.9,51.2-16.7,52.9-19.3C634.7,402.9,633.6,382.3,633.6,382.3z"/>
		<path class="st0" d="M464.1,392.1c0,0,7.3,3.4,7.3,13s-8.6,22-26.4,22c-17.9,0-27.7-6.4-36.2-8.3c-8.6-2-15.4-2.7-22.5,1
			c-7.1,3.7-9.3,9.6-16.2,2.2c-6.9-7.3-6.4-12.7-5.1-16.9s16.7-23,43.1-40.7c26.4-17.6,27.2-21.8,27.2-21.8s-10,2.9-16.7,0.2
			s-15.7-3.7-22-3.7c-5.6,0-11.8,3.6-15.2,7.2c-0.8,0.8-2,0.8-2.8,0c-1.6-1.7-3.8-5.2-3.8-11.1c0-9.3,5.4-21.8,25.5-21.8
			s24,7.8,40.9,7.8s15.9-8.1,21.1-7.3c5.1,0.7,10.5,7.1,10.8,12.2s0.2,6.9-2.9,11.3c-3.2,4.4-9.3,13.7-27.7,27.7
			s-38.9,29.9-40.9,32.1c0,0,9.1-5.1,26.7,0.5c17.6,5.6,24.5,2.9,28.7-0.2C460.9,394.3,462.4,392.1,464.1,392.1z"/>
		<path class="st0" d="M354.6,400.8c-0.1-0.6-0.7-0.9-1.2-0.6c-2.1,1.1-7.2,3.6-12.2,3.6c-6.6,0-7.8-7.1-5.6-15.7
			c2.2-8.6,11.3-60.2,11.8-64.7c0.5-4.4-2-7.8-10.3-7.8s-1.7,0-8.1,0s-11.3,1.5-12.7,8.6c-1.5,7.1-12.7,65.4-12.7,74.4
			s0.7,28.2,26.7,28.2C355.1,426.8,355.9,410.6,354.6,400.8z"/>
		
			<ellipse transform="matrix(0.9811 -0.1933 0.1933 0.9811 -48.2605 70.7016)" class="st0" cx="338.3" cy="282.7" rx="18.5" ry="16.8"/>
		<path class="st0" d="M265.5,265.5c0,0-13.7-0.2-18.4,11.5s2,24.5,16.4,26.7c0,0,2.2,7.3-1.2,27.2c-3.4,19.8-15.9,54.4-38.9,69.6
			c0,0-9.8-95.8-11-108.2c-1.2-12.5-2.9-18.6-12-17.1c-9.1,1.5-21.1,4.9-21.3,10c-0.2,5.1,3.9,32.3,3.9,35.8
			c0,3.4-4.4,25.2-18.4,50.9s-24.5,27.2-24.5,27.2s-3.2-99.4-5.1-111.7c-2-12.2-5.4-22.3-27.2-22.3s-39.7,13.7-51.2,26.4
			c-11.5,12.7-17.6,38.4-7.1,50.7s24.7,9.3,30.4,2.7s5.6-16.2,0.2-19.6c-5.4-3.4-8.8-10.5-4.7-19.3c4.2-8.8,17.6-17.4,23.8-17.6
			c6.1-0.2,5.6,13.5,5.6,21.8c0,8.3,5.1,99.7,5.4,105.8s2.7,10.5,18.4,10.5s43.3-11.3,61.7-57.1c0,0,3.2,38,5.4,46.8
			c2.2,8.8,6.6,10.3,17.6,10.3c11,0,27.9-6.1,43.6-23.5s36.2-61.7,36.2-99.7S269.2,265.5,265.5,265.5z"/>
		<path class="st0" d="M271.6,226c0,0,47.5-85.2,119.5-129.8s128.3-54.9,194-51.9l-0.5,12.2c0,0-54.4-3.4-107.8,26.4
			s-93.6,81.8-114.6,143H271.6z"/>
		<g>
			<path class="st0" d="M357.7,106c3.1-2.5,9.3-7.4,19.8-14.9c-0.7-0.1-1.4-0.2-2.1-0.3c-30.4-3.9-74.9-2.4-74.9-2.4
				c1,7.8,0.5,11.3,0.5,11.3C320.2,99.8,339.4,102,357.7,106z"/>
			<path class="st0" d="M523.4,147.2c-24.4-16.8-47.1-28.4-67.5-36.5c-4.1,3.5-16.5,14.3-25.3,23.8c8.3,5,16.1,10.6,23.3,16.6
				c39.2,32.8,57.3,73.5,57.3,73.5h89.1C572.9,182.9,523.4,147.2,523.4,147.2z"/>
		</g>
		<ellipse class="st1" cx="260.7" cy="94.9" rx="29.5" ry="28.3"/>
		<ellipse class="st2" cx="626.5" cy="51" rx="28.9" ry="28.5"/>
	</g>
</g>
</svg>
